<?xml version="1.0" encoding="utf-8"?>
<!-- Generator: Adobe Illustrator 26.0.3, SVG Export Plug-In . SVG Version: 6.00 Build 0)  -->
<svg version="1.1" id="Layer_1" xmlns="http://www.w3.org/2000/svg" xmlns:xlink="http://www.w3.org/1999/xlink" x="0px" y="0px"
	 viewBox="0 0 800 800" style="enable-background:new 0 0 800 800;" xml:space="preserve">
<style type="text/css">
	.st0{display:none;}
	.st1{display:inline;fill:#FFFFFF;}
	.st2{display:inline;}
	.st3{display:inline;fill:#030303;}
	.st4{display:inline;fill:#FDFDFD;}
	.st5{display:inline;fill:#FEFEFE;}
	.st6{fill:#FFFFFF;}
	.st7{display:inline;fill:#100F0F;}
	.st8{display:inline;fill:#0C0B0B;}
</style>
<g class="st0">
	<path class="st1" d="M722.3,728.7c-214.9,0-429.8,0-644.7,0c-3.5,0-6.4-2.9-6.4-6.4c0-214.9,0-429.8,0-644.7c0-3.5,2.9-6.4,6.4-6.4
		c214.9,0,429.8,0,644.7,0c3.5,0,6.4,2.9,6.4,6.4c0,214.9,0,429.8,0,644.7C728.7,725.9,725.9,728.7,722.3,728.7z M627.1,333.8
		c-102.4,40.7-364.7,39.6-453.7,1.7c-5.6-2.4-5-10.6,0.9-12.1c24.8-6.2,47.7-11.9,71.1-17.7c5.1-1.3,6.6-7.8,2.5-11.1
		c-20.4-16.7-42.2-6.1-62.7-1.2c-22.6,5.4-53.1,8.4-53.4,37.9c-0.3,29.8,30.1,33.6,52.7,38.5c128.5,27.7,258,26.4,387.6,9.6
		c27.6-3.6,55-11.3,81.3-20.6c16.9-6,30.7-19.3,17.7-40.4c-14.7-24.1-75.2-35.1-110-23.8c-6.1,2-5.7,10.8,0.6,12.3
		c21.6,5,43,9.9,64.4,14.8C632.3,323,632.9,331.5,627.1,333.8z M579.3,593.5c0,4.2,4,7.2,8,6.2c22.4-5.9,42.3-9.9,60.4-18
		c11.4-5.1,26.8-18.2,27.2-28.3c2.5-54.6,1.4-109.4,1.3-164.2c0-4.4-4.4-7.5-8.6-6c-26.1,9.7-49.8,18.1-72.8,28
		c-6.4,2.8-14.8,11.1-14.9,17.1C578.9,481.8,579.2,535.4,579.3,593.5z M139.4,381.4c-4.2-2.3-9.4,0.8-9.4,5.6
		c-0.1,55.3-0.7,106.1,0.7,156.9c0.3,9.9,7.1,24.4,15.1,28.5c22,11.1,45.7,18.8,73,28.9c4.2,1.5,8.6-1.5,8.6-6v-109
		c0-64.8-0.1-64.6-58.9-90C159.3,392.3,150.5,387.4,139.4,381.4z M369.6,429.8c-27.8-1.9-54.3-3.8-81.7-5.7
		c-3.7-0.3-6.8,2.7-6.8,6.4v169.7c0,3.3,2.5,6.1,5.9,6.4c27.3,2.2,53.9,4.4,81.7,6.7c3.7,0.3,6.9-2.6,6.9-6.4V436.2
		C375.5,432.8,372.9,430.1,369.6,429.8z M437.6,613.9c28.7-2.9,55.2-5.6,81.5-8.3c3.3-0.3,5.7-3.1,5.7-6.3v-171
		c0-3.8-3.3-6.8-7.1-6.3c-28.1,3.4-54.6,6.6-81.5,9.9c-3.2,0.4-5.6,3.1-5.6,6.3v169.4C430.5,611.4,433.8,614.3,437.6,613.9z
		 M676.3,612.4L676.3,612.4c-1.5-2.5-4.4-3.7-7.2-2.9c-174.8,49.2-349.5,49.3-526.7,1.8c-4.7-1.3-9,3-7.8,7.7
		c5.6,23.1,28.7,25.8,47.1,30.1c110.8,26.2,223.3,25.1,335.8,16.5c40.7-3.1,81.2-11.7,120.9-21.4c13.2-3.2,24.5-14.5,36.3-23.5
		C677.3,618.7,678,615.2,676.3,612.4z M121.1,177.3c0,1,0,2,0,3.1c0,2.1,1,4.1,2.8,5.3c29.5,20,59.6,39,88.1,60.4
		c41.8,31.4,82,64.9,123.6,96.5c5.6,4.3,17.2,5.7,23.3,2.9c6.2-2.9,13.6-13.6,12.5-19.5c-1.3-7.8-9-16.4-16.3-20.8
		c-19.1-11.7-40.4-19.8-59.1-32c-49.8-32.6-98.4-67-148.2-99.5c-5.2-3.4-13-2.7-20.5-2.6C123.8,170.9,121.1,173.8,121.1,177.3z
		 M685.7,180l-0.1-3.2c-0.1-3.5-3-6.2-6.5-6.2c-7.5,0.1-15.3-0.3-20.8,3.1c-71.5,43.9-142.6,88.6-213.2,134.1
		c-5.8,3.7-10.8,14.7-9.8,21.4c1,6.8,9.3,16.6,15.5,17.5c7.8,1.1,18.1-3.8,24.7-9.2c14.6-12,26.2-27.9,41.6-38.7
		c54.7-38.5,110.5-75.6,165.8-113.2C684.7,184.3,685.7,182.2,685.7,180z M366.1,286.2c29.5,18.1,54.3,17.8,80.3-0.2
		c5.1-3.6,2.6-11.6-3.6-11.6h-73.3C363,274.4,360.6,282.8,366.1,286.2z"/>
	<path class="st2" d="M626.2,321.6c-21.4-4.9-42.8-9.8-64.4-14.8c-6.3-1.4-6.7-10.3-0.6-12.3c34.8-11.3,95.2-0.3,110,23.8
		c12.9,21.1-0.9,34.4-17.7,40.4c-26.3,9.3-53.7,17-81.3,20.6c-129.6,16.8-259.1,18.1-387.6-9.6c-22.6-4.9-53-8.7-52.7-38.5
		c0.3-29.5,30.8-32.5,53.4-37.9c20.4-4.9,42.3-15.5,62.7,1.2c4,3.3,2.6,9.8-2.5,11.1c-23.3,5.8-46.3,11.5-71.1,17.7
		c-5.9,1.5-6.6,9.7-0.9,12.1c89.1,37.8,351.3,39,453.7-1.7C632.9,331.5,632.3,323,626.2,321.6z"/>
	<path class="st2" d="M587.3,599.7c-4,1.1-8-2-8-6.2c0-58.1-0.4-111.6,0.7-165.2c0.1-5.9,8.4-14.3,14.9-17.1
		c23-9.9,46.7-18.3,72.8-28c4.2-1.5,8.6,1.5,8.6,6c0.1,54.8,1.2,109.5-1.3,164.2c-0.5,10.1-15.8,23.2-27.2,28.3
		C629.6,589.7,609.7,593.7,587.3,599.7z"/>
	<path class="st2" d="M130,387c0-4.8,5.2-7.9,9.4-5.6c11.1,6,19.9,10.9,29,14.9c58.9,25.4,58.9,25.2,58.9,90v109
		c0,4.4-4.4,7.5-8.6,6c-27.3-10.1-51-17.8-73-28.9c-8-4-14.8-18.5-15.1-28.5C129.3,493.1,129.9,442.3,130,387z"/>
	<path class="st2" d="M375.5,436.2v170.6c0,3.7-3.2,6.7-6.9,6.4c-27.8-2.3-54.4-4.4-81.7-6.7c-3.3-0.3-5.9-3-5.9-6.4V430.5
		c0-3.7,3.1-6.6,6.8-6.4c27.4,1.9,53.9,3.8,81.7,5.7C372.9,430.1,375.5,432.8,375.5,436.2z"/>
	<path class="st2" d="M430.5,607.6V438.2c0-3.2,2.4-5.9,5.6-6.3c27-3.3,53.4-6.5,81.5-9.9c3.8-0.5,7.1,2.5,7.1,6.3v171
		c0,3.3-2.5,6-5.7,6.3c-26.3,2.7-52.8,5.4-81.5,8.3C433.8,614.3,430.5,611.4,430.5,607.6z"/>
	<path class="st2" d="M676.3,612.4c1.6,2.8,0.9,6.3-1.6,8.3c-11.8,9-23.1,20.3-36.3,23.5c-39.7,9.7-80.3,18.3-120.9,21.4
		c-112.4,8.6-225,9.8-335.8-16.5c-18.5-4.4-41.5-7.1-47.1-30.1c-1.1-4.7,3.1-9,7.8-7.7c177.2,47.5,351.9,47.4,526.7-1.8
		C671.9,608.7,674.9,609.9,676.3,612.4L676.3,612.4z"/>
	<path class="st2" d="M121.1,177.3c0-3.5,2.8-6.3,6.3-6.4c7.5-0.1,15.3-0.8,20.5,2.6c49.8,32.5,98.4,67,148.2,99.5
		c18.7,12.2,40,20.3,59.1,32c7.3,4.4,15,13.1,16.3,20.8c1,5.9-6.3,16.6-12.5,19.5s-17.7,1.4-23.3-2.9
		c-41.6-31.6-81.8-65.2-123.6-96.5c-28.4-21.4-58.6-40.4-88.1-60.4c-1.7-1.2-2.8-3.2-2.8-5.3C121.1,179.3,121.1,178.3,121.1,177.3z"
		/>
	<path class="st2" d="M685.7,180c0.1,2.2-1,4.3-2.8,5.5c-55.4,37.6-111.1,74.7-165.8,113.2c-15.3,10.8-26.9,26.7-41.6,38.7
		c-6.6,5.4-16.9,10.3-24.7,9.2c-6.2-0.9-14.5-10.7-15.5-17.5c-1-6.7,4-17.7,9.8-21.4c70.6-45.4,141.7-90.1,213.2-134.1
		c5.5-3.4,13.3-2.9,20.8-3.1c3.5-0.1,6.3,2.7,6.5,6.2L685.7,180z"/>
	<path class="st2" d="M369.4,274.4h73.3c6.2,0,8.8,8.1,3.6,11.6c-26,18-50.8,18.3-80.3,0.2C360.6,282.8,363,274.4,369.4,274.4z"/>
</g>
<g class="st0">
	<path class="st1" d="M81.2,718.8c0-205.2,0.3-410.4-0.5-615.6c-0.1-18.8,3.8-22.7,22.6-22.6c197.8,0.9,395.7,0.9,593.5,0
		c18.8-0.1,22.7,3.8,22.6,22.6c-0.9,197.8-0.9,395.7,0,593.5c0.1,18.8-3.8,22.7-22.6,22.6C491.6,718.5,286.4,718.8,81.2,718.8z"/>
	<path class="st3" d="M406.3,642.2c-57.9,0-115.7,0.2-173.6-0.1c-47.5-0.2-74.1-24.7-74.5-72.6c-0.9-114.7-0.8-229.3-0.1-344
		c0.3-48.1,25.7-73.4,73.9-73.7c115.7-0.7,231.4-0.6,347.2-0.1c40.8,0.2,69,28,69.1,68.3c0.5,117.8,0.5,235.6,0,353.5
		c-0.2,42.6-25.8,67.9-68.5,68.5C522,642.7,464.2,642.2,406.3,642.2z"/>
	<path class="st4" d="M628,395.1c0,55.7,0.1,111.5,0,167.2c-0.1,47.5-50.8,67.6-90.2,56.1c-7.2-2.1-9.3,9-9.3-21.1
		c0-59.9-0.3-119.9,0-179.8c-0.1-25.1-1.4-20.7,12.2-29.1c5.5-3.2,6.9-16.1,7-24.2c0.6-52.6-0.2-105.2,0.7-157.8
		c0.2-13.7-1.1-36.2,15.8-37.2c23.3-1.3,46.5-1.2,58.8,24.7c5.2,10.9,5.1,22.2,5.1,33.8C627.9,283.6,628,339.4,628,395.1z"/>
	<path class="st4" d="M628,399.9c0,55.7,0.1,111.5,0,167.2c-0.1,47.5-49.7,58.9-90.8,57.7c-5.9-0.2-8.8,1.5-8.7-22.7
		c0.4-59.9-0.3-119.9,0-179.8c-0.1-25.1-1.4-20.7,12.2-29.1c5.5-3.2,6.9-16.1,7-24.2c0.6-52.6-0.2-105.2,0.7-157.8
		c0.2-13.7-1.1-36.2,15.8-37.2c23.3-1.3,46.5-1.2,58.8,24.7c5.2,10.9,5.1,22.2,5.1,33.8C627.9,288.4,628,344.1,628,399.9z"/>
	<path class="st4" d="M177.7,397.8c0-56.7,0.1-113.5,0-170.2c0-20.8,4.4-40.7,24.1-50.6c36.8-18.5,55.4-5.8,55.4,35.4
		c0,43.1-1.4,86.2,0.6,129.2c0.9,18.6-1.7,45.1,17.1,54.7c2.4,1.2,2.1,11.7,2.1,17.9c0.1,60.9-0.5,121.9,0.4,182.8
		c0.3,19-6.3,25.5-25.4,26.2c-60.6,2.1-74.4-10.4-74.4-71C177.6,500.7,177.6,449.2,177.7,397.8z"/>
	<path class="st5" d="M295.4,501.8c0-26.3-0.9-52.6,0.4-78.9c0.6-12.4-1.5-26.8,7.9-28.7c6.5-1.3,12.6-19.6,12.7-27.6
		c0.3-55.8,1.1-111.5-0.3-167.3c-0.5-22.7,8.1-28.8,29.5-28.7c20.8,0,27.6,7.1,27.2,27.6c-1,55.7-0.4,111.5-0.3,167.3
		c0,11.7,4.1,25.9,11.3,25.5c0,0,12.6-1,12.2,23.6c-1.1,62.1,0,124.1,0,186.2c0,3.2-0.4,0-0.4,9.3c0,19.4-52.2,12.1-82.2,12.1
		c-15.9,0-18.3-9.6-18.2-22.7C295.6,567,295.4,534.4,295.4,501.8z"/>
	<path class="st5" d="M490.8,288.2c0,18.9,0.5,37.9,0.5,56.6c0,20-3.2,45.3,17.4,54.6c2.8,1.3,2.5,13.6,2.6,20.9
		c0.2,58.8-0.6,117.6,0.5,176.4c0.4,21.5-6.1,29.4-28.5,29.6c-73,0.6-73,1.5-73-69.9c0-39.9,0.4-79.8,0.4-119.7
		c0-45-1.5-44.7,14.4-44.8c5.1,0,8.7-15.2,8.7-23.1c0.3-55.6,1.1-111.3-0.3-166.9c-0.6-23,8.6-28.1,29.7-28.2
		c18.1-0.1,28.1,7.4,28,29.5C491.1,231.5,490.8,259.8,490.8,288.2z"/>
</g>
<g>
	<g>
		<path class="st6" d="M771.5,403.1c0-101,0.1-202.1-0.1-303.1c-0.1-49-18.9-68-68.4-68c-202.2-0.3-404.2-0.3-606.4,0
			c-45,0-67.3,21.4-67.4,65.7c-0.4,203.6-0.4,407.3,0,610.9c0.1,44.3,22.4,65.5,67.4,65.7c202.2,0.3,404.2,0.3,606.4,0
			c49.3,0,68.3-18.9,68.4-68C771.8,605.3,771.5,504.2,771.5,403.1z M693.9,741.1c-194.5-0.9-388.9-0.9-583.2,0
			c-35.9,0.1-46.7-14.8-46.6-49c1-192.9,1-385.9,0-578.8C63.9,78.6,75.3,64.5,111,64.8c194.5,1,388.9,1,583.2,0
			c35.9-0.1,47.5,14.5,47,48.8c-1.1,98.2-0.3,196.2-0.3,294.1c0,94.9-0.9,189.9,0.4,284.8C741.8,727,729.3,741.4,693.9,741.1z"/>
		<path class="st6" d="M688.9,88c15.5,2.7,25.4,11.2,24.5,27c-0.9,15.2-9.9,25.4-26,24.8c-15.9-0.6-24.5-11-23.9-26.5
			C663.9,97.8,673.7,89.5,688.9,88z"/>
		<path class="st6" d="M143.5,110c-1.1,16.1-9.5,26.2-25.1,26.4c-15.2,0.1-25.8-8.6-25.8-24.8c-0.1-15.6,8.5-25.5,24.7-26.1
			C133.5,85,141.1,95.2,143.5,110z"/>
		<path class="st6" d="M141.8,690.6c-1.3,17.8-10.5,27.4-25.5,27.4c-14.9,0-25.1-9.6-25-25.5c0.1-15.8,9.9-25.5,25-25.5
			C131.6,667,139.9,677.4,141.8,690.6z"/>
		<path class="st6" d="M685.9,718.4c-14.9-3.4-24.5-12-23.1-27.8c1.3-15.5,11.2-24.7,26.8-23.5c15.5,1.1,24.1,11.9,22.9,27.2
			C711.4,709.7,701.4,717.7,685.9,718.4z"/>
		<path class="st6" d="M403.2,132.8c-148-0.3-271.5,122.2-271.9,269.6c-0.4,147.3,122.9,271,270.3,271.3
			C549.9,674,672.4,552.1,672.5,404C672.7,255.3,551.4,132.9,403.2,132.8z M403.4,638.6C273.4,639,166.9,533.5,166.6,404
			c-0.3-129.6,105.7-236,235.2-236.2c130.5-0.1,235.7,104.4,236,234.5C638,532.7,533.6,638.1,403.4,638.6z"/>
		<path class="st6" d="M400.6,211.7c-103.7,1-189.1,87-189.4,190.9S295.7,593,399.5,594.8c105.5,1.9,193.2-84.7,193.3-191
			C592.9,297,506.6,210.7,400.6,211.7z M400.6,558.3c-88.3-0.7-155.9-70.6-154-159.3c1.9-86.2,70.4-151.7,157.7-151
			c87,0.9,154.2,68,154.4,154.4C559.2,490,489.3,559,400.6,558.3z"/>
		<path class="st6" d="M464.9,405c-0.9,35.3-27.2,61.4-62.7,61.5c-37.1,0.3-65-28-64.1-65c0.9-34.8,28.1-61.5,63-61.7
			C438.4,339.7,465.7,367.7,464.9,405z"/>
	</g>
</g>
<g class="st0">
	<path class="st1" d="M719.4,719.4c-212.7,0-425.5,0-638.2,0c0-205.4,0.3-410.7-0.5-616.1c-0.1-18.9,3.8-22.7,22.7-22.7
		c205.4,0.9,410.7,0.5,616.1,0.5C719.4,293.9,719.4,506.6,719.4,719.4z"/>
	<path class="st7" d="M662.4,400.3c0,69.5,0.2,139-0.1,208.5c-0.1,34.3-13.2,47.5-47.6,47.5c-141.1,0.2-282.2,0.2-423.2,0
		c-31.4-0.1-47.1-14.9-47.1-45.7c-0.4-142.1-0.3-284.3,0-426.4c0.1-30.9,15.6-45.9,46.9-45.9c141.1-0.2,282.2-0.2,423.2,0
		c34.5,0,47.7,13.2,47.9,47.3C662.6,257.1,662.4,328.7,662.4,400.3z"/>
	<path class="st1" d="M403.4,633c-67.3,0-134.7-0.5-202,0.3c-23.9,0.3-33.9-7.9-33.7-33c0.8-135.7,0.7-271.4,0.1-407.1
		c-0.1-23.1,8.6-31.9,31.5-31.8c136.7,0.5,273.5,0.6,410.2,0c23.8-0.1,30.9,10.7,30.8,32.8c-0.5,135.7-0.5,271.4,0,407.1
		c0.1,23-9,32.1-31.9,31.9C540.1,632.5,471.7,633,403.4,633z"/>
	<path class="st8" d="M399.3,347.7c0-29.4-0.1-58.9,0-88.3c0-7.3-2.3-17.3,1.5-21.5c25.2-28.2,58.3,2.7,87.8-10.2
		c12.7-5.6,14.3,15.9,15.3,28.4c2.2,28.7-18,39.1-39.3,38.4c-29.5-1-28.5,14.5-28.2,34.9c0.7,59.9,0.6,119.8,0.1,179.7
		c-0.2,29.4-19.9,50.9-49.3,55.8c-36.2,6-82.1-12.6-89.3-37.7c-2.7-9.3-6.1-27.1,7.3-41.6c16.1-17.5,33.3-22.5,57.4-17.7
		c40.2,7.9,38.5-14.1,36.9-41.3C398.1,400.3,399.3,374,399.3,347.7z"/>
</g>
</svg>
