<?xml version="1.0" encoding="utf-8"?>
<!-- Generator: Adobe Illustrator 27.6.1, SVG Export Plug-In . SVG Version: 6.00 Build 0)  -->
<svg version="1.1" id="Layer_1" xmlns="http://www.w3.org/2000/svg" xmlns:xlink="http://www.w3.org/1999/xlink" x="0px" y="0px"
	 viewBox="0 0 800 800" style="enable-background:new 0 0 800 800;" xml:space="preserve">
<style type="text/css">
	.st0{fill:none;stroke:#FFFFFF;stroke-width:27;stroke-miterlimit:10;}
	.st1{fill:none;stroke:#FFFFFF;stroke-width:52.7127;stroke-miterlimit:10;}
	.st2{fill:#FFFFFF;}
	.st3{fill:none;stroke:#FFFFFF;stroke-width:45.6718;stroke-linecap:round;stroke-miterlimit:10;}
</style>
<line class="st0" x1="693.1" y1="-117.3" x2="692.4" y2="-116.6"/>
<path class="st1" d="M520.3,660.4l-36.8,36.8c-45,45-118.1,45-163.1,0L139.9,516.9c-45-45-45-118.1,0-163.1l36.8-36.8
	c45-45,118.1-45,163.1,0l180.4,180.4C565.3,542.4,565.3,615.4,520.3,660.4z"/>
<path class="st2" d="M519.6,418.1l-215-174.2c-23.5-19.1-52.4-31.1-84-35l-37.1-4.6c-14.1-9-14.6-29.9-1-43.5L305.7,37.7
	c13.6-13.6,34.5-13.1,43.5,1l3.8,33.9c3.7,32.8,16.1,62.9,36.1,87.1l162.1,196.5c6.9,10.8,4.3,26-6.1,36.4L519.6,418.1L519.6,418.1z
	"/>
<g>
	<path class="st2" d="M538.1,345.8c6.5,5.5,12.5,11.6,18.3,17.7c26.7,28.8,48.6,62,64.2,98c2.3,5.2,4.6,11,6.6,16.4
		c8.6,21,7,44.5,0.7,64.9c-15.2,48.9-56,97.1-92,132.3c0,0-30.1-30.1-30.1-30.1l3.2-3.6c16.6-19,32.2-39.7,45.2-61.2
		c11.8-20.3,23.9-43.4,24.2-66.5c-0.1-4.6-0.9-8.3-2.1-11.3c0,0-3.5-7.4-3.5-7.4c-1.5-2.9-2.8-5.8-4.4-8.6
		c-17.7-33.3-41.9-63.7-71.4-87.1c0,0-0.3-0.2-0.3-0.2s-0.1-0.1-0.1-0.1c0,0-0.1,0,0,0C496.4,399,538,345.8,538.1,345.8L538.1,345.8
		z"/>
</g>
<line class="st3" x1="219" y1="495.1" x2="337.6" y2="613.7"/>
<line class="st3" x1="270.8" y1="447.8" x2="389.4" y2="566.4"/>
<line class="st3" x1="321.6" y1="392.5" x2="440.2" y2="511.2"/>
<path class="st2" d="M571.1,523.1l108.3,88.2c12.6,10.2,28.1,16.7,45.1,18.8l19.9,2.5c7.6,4.8,7.8,16,0.5,23.3l-66.1,66.1
	c-7.3,7.3-18.5,7-23.3-0.5l-2-18.2c-2-17.6-8.7-33.7-19.4-46.7l-79.9-100.2c-3.7-5.8-2.3-14,3.3-19.5L571.1,523.1L571.1,523.1z"/>
</svg>
