<?xml version="1.0" encoding="utf-8"?>
<!-- Generator: Adobe Illustrator 26.0.3, SVG Export Plug-In . SVG Version: 6.00 Build 0)  -->
<svg version="1.1" id="Layer_1" xmlns="http://www.w3.org/2000/svg" xmlns:xlink="http://www.w3.org/1999/xlink" x="0px" y="0px"
	 viewBox="0 0 800 800" style="enable-background:new 0 0 800 800;" xml:space="preserve">
<style type="text/css">
	.st0{opacity:0;fill:#FFFFFF;}
	.st1{fill:#FFFFFF;}
	.st2{display:none;}
	.st3{display:inline;fill:#FFFFFF;}
	.st4{display:inline;fill:#030303;}
	.st5{display:inline;fill:#FDFDFD;}
	.st6{display:inline;fill:#FEFEFE;}
	.st7{display:inline;}
	.st8{fill:#100F0F;}
	.st9{fill:#0C0B0B;}
	.st10{fill:#3E3C3C;}
	.st11{fill:#3D3B3B;}
	.st12{fill:#393736;}
	.st13{fill:#393737;}
	.st14{fill:#FDFDFD;}
	.st15{fill:#0F0E0E;}
	.st16{fill:#FEFEFE;}
	.st17{fill:#080707;}
	.st18{display:inline;fill:#100F0F;}
	.st19{display:inline;fill:#0C0B0B;}
</style>
<g>
	<path class="st0" d="M854.4,834.5c-305,0-610,0-915,0c-5,0-9.1-4.1-9.1-9.1c0-305,0-610,0-915c0-5,4.1-9.1,9.1-9.1
		c305,0,610,0,915,0c5,0,9.1,4.1,9.1,9.1c0,305,0,610,0,915C863.5,830.5,859.5,834.5,854.4,834.5z M719.3,274.1
		c-145.3,57.8-517.6,56.2-643.9,2.4c-7.9-3.4-7.1-15,1.3-17.2c35.2-8.8,67.7-16.9,100.9-25.1c7.2-1.8,9.4-11.1,3.5-15.8
		c-29-23.7-59.9-8.7-89-1.7c-32.1,7.7-75.4,11.9-75.8,53.8c-0.4,42.3,42.7,47.7,74.8,54.6c182.4,39.3,366.2,37.5,550.1,13.6
		c39.2-5.1,78.1-16,115.4-29.2c24-8.5,43.6-27.4,25.1-57.3C760.9,218,675,202.4,625.7,218.4c-8.7,2.8-8.1,15.3,0.9,17.5
		c30.7,7.1,61,14.1,91.4,21C726.7,258.7,727.6,270.8,719.3,274.1z M651.5,642.6c0,6,5.7,10.2,11.4,8.8c31.8-8.4,60-14.1,85.7-25.5
		c16.2-7.2,38-25.8,38.6-40.2c3.5-77.5,2-155.3,1.8-233c0-6.2-6.2-10.6-12.2-8.5c-37,13.8-70.7,25.7-103.3,39.7
		c-9.1,4-21,15.8-21.1,24.3C650.9,484.1,651.3,560.2,651.5,642.6z M27.2,341.6c-6-3.3-13.3,1.1-13.3,7.9c-0.1,78.5-1,150.6,1,222.7
		c0.4,14.1,10.1,34.6,21.4,40.4c31.2,15.8,64.9,26.7,103.6,41c6,2.1,12.2-2.1,12.2-8.5V490.5c0-92-0.1-91.7-83.6-127.7
		C55.4,357.1,42.9,350.1,27.2,341.6z M353.9,410.3c-39.5-2.7-77.1-5.4-116-8.1c-5.3-0.4-9.7,3.8-9.7,9.1v240.8
		c0,4.7,3.5,8.7,8.4,9.1c38.7,3.1,76.5,6.2,116,9.5c5.3,0.4,9.8-3.7,9.8-9.1V419.4C362.2,414.6,358.6,410.7,353.9,410.3z
		 M450.4,671.6c40.7-4.1,78.3-7.9,115.7-11.8c4.7-0.4,8.1-4.4,8.1-8.9V408.2c0-5.4-4.7-9.7-10.1-8.9c-39.9,4.8-77.5,9.4-115.7,14.1
		c-4.5,0.6-7.9,4.4-7.9,8.9v240.4C440.3,668,445,672.2,450.4,671.6z M789.2,669.5L789.2,669.5c-2.1-3.5-6.2-5.3-10.2-4.1
		c-248.1,69.8-496,70-747.5,2.6c-6.7-1.8-12.8,4.3-11.1,10.9c7.9,32.8,40.7,36.6,66.8,42.7c157.3,37.2,316.9,35.6,476.6,23.4
		c57.8-4.4,115.2-16.6,171.6-30.4c18.7-4.5,34.8-20.6,51.5-33.4C790.6,678.4,791.6,673.4,789.2,669.5z M1.2,52c0,1.4,0,2.8,0,4.4
		c0,3,1.4,5.8,4,7.5c41.9,28.4,84.6,55.3,125,85.7c59.3,44.6,116.4,92.1,175.4,137c7.9,6.1,24.4,8.1,33.1,4.1
		c8.8-4.1,19.3-19.3,17.7-27.7c-1.8-11.1-12.8-23.3-23.1-29.5c-27.1-16.6-57.3-28.1-83.9-45.4C178.7,141.8,109.8,93,39.1,46.8
		C31.7,42,20.6,43,10,43.2C5,42.9,1.2,47,1.2,52z M802.5,55.8l-0.1-4.5c-0.1-5-4.3-8.8-9.2-8.8c-10.6,0.1-21.7-0.4-29.5,4.4
		C662.1,109.2,561.2,172.6,461,237.2c-8.2,5.3-15.3,20.9-13.9,30.4c1.4,9.7,13.2,23.6,22,24.8c11.1,1.6,25.7-5.4,35.1-13.1
		c20.7-17,37.2-39.6,59-54.9C640.8,169.8,720,117.1,798.5,63.7C801.1,61.9,802.5,58.9,802.5,55.8z M348.9,206.5
		c41.9,25.7,77.1,25.3,114-0.3c7.2-5.1,3.7-16.5-5.1-16.5h-104C344.5,189.8,341.1,201.7,348.9,206.5z"/>
	<path class="st1" d="M718.1,256.8c-30.4-7-60.7-13.9-91.4-21c-8.9-2-9.5-14.6-0.9-17.5c49.4-16,135.1-0.4,156.1,33.8
		c18.3,29.9-1.3,48.8-25.1,57.3c-37.3,13.2-76.2,24.1-115.4,29.2C457.5,362.5,273.7,364.3,91.3,325c-32.1-7-75.2-12.3-74.8-54.6
		c0.4-41.9,43.7-46.1,75.8-53.8c29-7,60-22,89,1.7c5.7,4.7,3.7,13.9-3.5,15.8c-33.1,8.2-65.7,16.3-100.9,25.1
		c-8.4,2.1-9.4,13.8-1.3,17.2c126.5,53.6,498.6,55.3,643.9-2.4C727.6,270.8,726.7,258.7,718.1,256.8z"/>
	<path class="st1" d="M662.8,651.4c-5.7,1.6-11.4-2.8-11.4-8.8c0-82.5-0.6-158.4,1-234.5c0.1-8.4,11.9-20.3,21.1-24.3
		c32.6-14.1,66.3-26,103.3-39.7c6-2.1,12.2,2.1,12.2,8.5c0.1,77.8,1.7,155.4-1.8,233c-0.7,14.3-22.4,32.9-38.6,40.2
		C722.9,637.2,694.6,642.9,662.8,651.4z"/>
	<path class="st1" d="M13.8,349.6c0-6.8,7.4-11.2,13.3-7.9c15.8,8.5,28.2,15.5,41.2,21.1c83.6,36,83.6,35.8,83.6,127.7v154.7
		c0,6.2-6.2,10.6-12.2,8.5c-38.7-14.3-72.4-25.3-103.6-41c-11.4-5.7-21-26.3-21.4-40.4C12.8,500.2,13.7,428.1,13.8,349.6z"/>
	<path class="st1" d="M362.2,419.4v242.1c0,5.3-4.5,9.5-9.8,9.1c-39.5-3.3-77.2-6.2-116-9.5c-4.7-0.4-8.4-4.3-8.4-9.1V411.3
		c0-5.3,4.4-9.4,9.7-9.1c38.9,2.7,76.5,5.4,116,8.1C358.6,410.7,362.2,414.6,362.2,419.4z"/>
	<path class="st1" d="M440.3,662.7V422.2c0-4.5,3.4-8.4,7.9-8.9c38.3-4.7,75.8-9.2,115.7-14.1c5.4-0.7,10.1,3.5,10.1,8.9v242.7
		c0,4.7-3.5,8.5-8.1,8.9c-37.3,3.8-74.9,7.7-115.7,11.8C445,672.2,440.3,668,440.3,662.7z"/>
	<path class="st1" d="M789.2,669.5c2.3,4,1.3,8.9-2.3,11.8c-16.7,12.8-32.8,28.8-51.5,33.4c-56.3,13.8-114,26-171.6,30.4
		c-159.5,12.2-319.3,13.9-476.6-23.4c-26.3-6.2-58.9-10.1-66.8-42.7c-1.6-6.7,4.4-12.8,11.1-10.9c251.5,67.4,499.4,67.3,747.5-2.6
		C782.9,664.2,787.2,665.9,789.2,669.5L789.2,669.5z"/>
	<path class="st1" d="M1.2,52c0-5,4-8.9,8.9-9.1c10.6-0.1,21.7-1.1,29.1,3.7c70.7,46.1,139.7,95.1,210.3,141.2
		c26.5,17.3,56.8,28.8,83.9,45.4c10.4,6.2,21.3,18.6,23.1,29.5c1.4,8.4-8.9,23.6-17.7,27.7s-25.1,2-33.1-4.1
		c-59-44.8-116.1-92.5-175.4-137C90,118.9,47.2,92,5.3,63.6c-2.4-1.7-4-4.5-4-7.5C1.2,54.8,1.2,53.4,1.2,52z"/>
	<path class="st1" d="M800,55.9c0.1,3.1-1.4,6.1-4,7.8c-78.6,53.4-155.2,105.9-232.8,160.5c-21.7,15.3-38.2,37.9-59,54.9
		c-9.4,7.7-24,14.6-35.1,13.1c-8.8-1.3-20.6-15.2-22-24.8c-1.4-9.5,5.7-25.1,13.9-30.4c100.2-64.4,201.1-127.9,302.6-190.3
		c7.8-4.8,16.4-4,27-4.3c5-0.1,8.9,3.8,9.2,8.8L800,55.9z"/>
	<path class="st1" d="M353.6,189.8h104c8.8,0,12.5,11.5,5.1,16.5c-36.9,25.5-72.1,26-114,0.3C341.1,201.7,344.5,189.8,353.6,189.8z"
		/>
</g>
<g class="st2">
	<path class="st3" d="M81.2,718.8c0-205.2,0.3-410.4-0.5-615.6c-0.1-18.8,3.8-22.7,22.6-22.6c197.8,0.9,395.7,0.9,593.5,0
		c18.8-0.1,22.7,3.8,22.6,22.6c-0.9,197.8-0.9,395.7,0,593.5c0.1,18.8-3.8,22.7-22.6,22.6C491.6,718.5,286.4,718.8,81.2,718.8z"/>
	<path class="st4" d="M406.3,642.2c-57.9,0-115.7,0.2-173.6-0.1c-47.5-0.2-74.1-24.7-74.5-72.6c-0.9-114.7-0.8-229.3-0.1-344
		c0.3-48.1,25.7-73.4,73.9-73.7c115.7-0.7,231.4-0.6,347.2-0.1c40.8,0.2,69,28,69.1,68.3c0.5,117.8,0.5,235.6,0,353.5
		c-0.2,42.6-25.8,67.9-68.5,68.5C522,642.7,464.2,642.2,406.3,642.2z"/>
	<path class="st5" d="M628,395.1c0,55.7,0.1,111.5,0,167.2c-0.1,47.5-50.8,67.6-90.2,56.1c-7.2-2.1-9.3,9-9.3-21.1
		c0-59.9-0.3-119.9,0-179.8c-0.1-25.1-1.4-20.7,12.2-29.1c5.5-3.2,6.9-16.1,7-24.2c0.6-52.6-0.2-105.2,0.7-157.8
		c0.2-13.7-1.1-36.2,15.8-37.2c23.3-1.3,46.5-1.2,58.8,24.7c5.2,10.9,5.1,22.2,5.1,33.8C627.9,283.6,628,339.4,628,395.1z"/>
	<path class="st5" d="M628,399.9c0,55.7,0.1,111.5,0,167.2c-0.1,47.5-49.7,58.9-90.8,57.7c-5.9-0.2-8.8,1.5-8.7-22.7
		c0.4-59.9-0.3-119.9,0-179.8c-0.1-25.1-1.4-20.7,12.2-29.1c5.5-3.2,6.9-16.1,7-24.2c0.6-52.6-0.2-105.2,0.7-157.8
		c0.2-13.7-1.1-36.2,15.8-37.2c23.3-1.3,46.5-1.2,58.8,24.7c5.2,10.9,5.1,22.2,5.1,33.8C627.9,288.4,628,344.1,628,399.9z"/>
	<path class="st5" d="M177.7,397.8c0-56.7,0.1-113.5,0-170.2c0-20.8,4.4-40.7,24.1-50.6c36.8-18.5,55.4-5.8,55.4,35.4
		c0,43.1-1.4,86.2,0.6,129.2c0.9,18.6-1.7,45.1,17.1,54.7c2.4,1.2,2.1,11.7,2.1,17.9c0.1,60.9-0.5,121.9,0.4,182.8
		c0.3,19-6.3,25.5-25.4,26.2c-60.6,2.1-74.4-10.4-74.4-71C177.6,500.7,177.6,449.2,177.7,397.8z"/>
	<path class="st6" d="M295.4,501.8c0-26.3-0.9-52.6,0.4-78.9c0.6-12.4-1.5-26.8,7.9-28.7c6.5-1.3,12.6-19.6,12.7-27.6
		c0.3-55.8,1.1-111.5-0.3-167.3c-0.5-22.7,8.1-28.8,29.5-28.7c20.8,0,27.6,7.1,27.2,27.6c-1,55.7-0.4,111.5-0.3,167.3
		c0,11.7,4.1,25.9,11.3,25.5c0,0,12.6-1,12.2,23.6c-1.1,62.1,0,124.1,0,186.2c0,3.2-0.4,0-0.4,9.3c0,19.4-52.2,12.1-82.2,12.1
		c-15.9,0-18.3-9.6-18.2-22.7C295.6,567,295.4,534.4,295.4,501.8z"/>
	<path class="st6" d="M490.8,288.2c0,18.9,0.5,37.9,0.5,56.6c0,20-3.2,45.3,17.4,54.6c2.8,1.3,2.5,13.6,2.6,20.9
		c0.2,58.8-0.6,117.6,0.5,176.4c0.4,21.5-6.1,29.4-28.5,29.6c-73,0.6-73,1.5-73-69.9c0-39.9,0.4-79.8,0.4-119.7
		c0-45-1.5-44.7,14.4-44.8c5.1,0,8.7-15.2,8.7-23.1c0.3-55.6,1.1-111.3-0.3-166.9c-0.6-23,8.6-28.1,29.7-28.2
		c18.1-0.1,28.1,7.4,28,29.5C491.1,231.5,490.8,259.8,490.8,288.2z"/>
</g>
<g class="st2">
	<g class="st7">
		<path class="st1" d="M81.2,718.8c0-205.2,0.3-410.4-0.5-615.6c-0.1-18.8,3.8-22.7,22.6-22.6c197.8,0.9,395.7,0.9,593.5,0
			c18.8-0.1,22.7,3.8,22.6,22.6c-0.9,197.8-0.9,395.7,0,593.5c0.1,18.8-3.8,22.7-22.6,22.6C491.6,718.5,286.4,718.8,81.2,718.8z"/>
		<path class="st8" d="M662.1,403.1c0,70.5,0.2,141-0.1,211.4c-0.1,34.2-13.3,47.4-47.7,47.4c-141,0.2-281.9,0.2-422.9,0
			c-31.4-0.1-46.9-14.9-47-45.8c-0.3-142-0.3-284,0-426c0.1-30.9,15.6-45.8,47-45.8c141-0.2,281.9-0.2,422.9,0
			c34.5,0,47.6,13.2,47.7,47.4C662.2,262.2,662.1,332.7,662.1,403.1z"/>
		<path class="st1" d="M639.8,406.3c0,66.2-0.6,132.4,0.3,198.6c0.3,24.1-8.4,34.1-33.1,33.9c-135.6-0.6-271.2-0.6-406.7,0
			c-25,0.1-32.6-10.3-32.5-34.2c0.7-134.5,0.7-269.1,0-403.6c-0.1-24.2,7.8-34,32.7-33.8c135.6,0.7,271.2,0.7,406.7,0
			c25-0.1,33.1,10.1,32.8,34C639.2,269.7,639.8,338,639.8,406.3z"/>
		<path class="st9" d="M592.1,403.7C592,507,506.6,592,403.2,591.8c-102.8-0.2-188.8-86.5-188.5-189.2
			c0.3-102.8,86.4-188.2,189.6-188C507.6,214.7,592.2,300,592.1,403.7z"/>
		<path class="st10" d="M603.5,183.4c10.8,1.9,17.7,7.8,17.1,18.8c-0.6,10.6-6.9,17.7-18.1,17.3c-11.1-0.4-17.1-7.7-16.7-18.5
			C586.1,190.2,592.9,184.4,603.5,183.4z"/>
		<path class="st11" d="M223.2,198.7c-0.8,11.2-6.6,18.3-17.5,18.4c-10.6,0.1-18-6-18-17.3c-0.1-10.9,5.9-17.8,17.2-18.2
			C216.2,181.3,221.5,188.4,223.2,198.7z"/>
		<path class="st12" d="M222,603.6c-0.9,12.4-7.3,19.1-17.8,19.1c-10.4,0-17.5-6.7-17.4-17.8c0.1-11,6.9-17.8,17.4-17.8
			C214.9,587.1,220.7,594.4,222,603.6z"/>
		<path class="st13" d="M601.4,623c-10.4-2.4-17.1-8.4-16.1-19.4c0.9-10.8,7.8-17.2,18.7-16.4c10.8,0.8,16.8,8.3,16,19
			C619.2,616.9,612.2,622.5,601.4,623z"/>
		<path class="st14" d="M404.4,567.3c-90.6,0.3-164.9-73.3-165.1-163.6c-0.2-90.4,73.7-164.6,164-164.7
			c91-0.1,164.4,72.8,164.6,163.5C568,493.5,495.2,567,404.4,567.3z"/>
		<path class="st15" d="M270.4,402.7c0.2-72.4,59.8-132.4,132.1-133.1c73.9-0.7,134.1,59.5,134,134
			c-0.1,74.1-61.2,134.5-134.8,133.2C329.3,535.5,270.2,475.1,270.4,402.7z"/>
		<path class="st16" d="M405.1,294.9c60.7,0.6,107.5,47.4,107.7,107.7c0.3,61.1-48.5,109.2-110.3,108.7
			c-61.6-0.5-108.7-49.2-107.4-111.1C296.4,340.1,344.2,294.4,405.1,294.9z"/>
		<path class="st17" d="M447.3,404.4c-0.6,24.6-19,42.8-43.7,42.9c-25.9,0.2-45.3-19.5-44.7-45.3c0.6-24.3,19.6-42.9,43.9-43
			C428.8,358.9,447.9,378.4,447.3,404.4z"/>
	</g>
</g>
<g class="st2">
	<path class="st3" d="M719.4,719.4c-212.7,0-425.5,0-638.2,0c0-205.4,0.3-410.7-0.5-616.1c-0.1-18.9,3.8-22.7,22.7-22.7
		c205.4,0.9,410.7,0.5,616.1,0.5C719.4,293.9,719.4,506.6,719.4,719.4z"/>
	<path class="st18" d="M662.4,400.3c0,69.5,0.2,139-0.1,208.5c-0.1,34.3-13.2,47.5-47.6,47.5c-141.1,0.2-282.2,0.2-423.2,0
		c-31.4-0.1-47.1-14.9-47.1-45.7c-0.4-142.1-0.3-284.3,0-426.4c0.1-30.9,15.6-45.9,46.9-45.9c141.1-0.2,282.2-0.2,423.2,0
		c34.5,0,47.7,13.2,47.9,47.3C662.6,257.1,662.4,328.7,662.4,400.3z"/>
	<path class="st3" d="M403.4,633c-67.3,0-134.7-0.5-202,0.3c-23.9,0.3-33.9-7.9-33.7-33c0.8-135.7,0.7-271.4,0.1-407.1
		c-0.1-23.1,8.6-31.9,31.5-31.8c136.7,0.5,273.5,0.6,410.2,0c23.8-0.1,30.9,10.7,30.8,32.8c-0.5,135.7-0.5,271.4,0,407.1
		c0.1,23-9,32.1-31.9,31.9C540.1,632.5,471.7,633,403.4,633z"/>
	<path class="st19" d="M399.3,347.7c0-29.4-0.1-58.9,0-88.3c0-7.3-2.3-17.3,1.5-21.5c25.2-28.2,58.3,2.7,87.8-10.2
		c12.7-5.6,14.3,15.9,15.3,28.4c2.2,28.7-18,39.1-39.3,38.4c-29.5-1-28.5,14.5-28.2,34.9c0.7,59.9,0.6,119.8,0.1,179.7
		c-0.2,29.4-19.9,50.9-49.3,55.8c-36.2,6-82.1-12.6-89.3-37.7c-2.7-9.3-6.1-27.1,7.3-41.6c16.1-17.5,33.3-22.5,57.4-17.7
		c40.2,7.9,38.5-14.1,36.9-41.3C398.1,400.3,399.3,374,399.3,347.7z"/>
</g>
</svg>
