<?xml version="1.0" encoding="utf-8"?>
<!-- Generator: Adobe Illustrator 27.6.1, SVG Export Plug-In . SVG Version: 6.00 Build 0)  -->
<svg version="1.1" id="Layer_1" xmlns="http://www.w3.org/2000/svg" xmlns:xlink="http://www.w3.org/1999/xlink" x="0px" y="0px"
	 viewBox="0 0 800 800" style="enable-background:new 0 0 800 800;" xml:space="preserve">
<style type="text/css">
	.st0{fill:none;stroke:#FFFFFF;stroke-width:30;stroke-miterlimit:10;}
	.st1{fill:none;stroke:#FFFFFF;stroke-width:39;stroke-linecap:round;stroke-miterlimit:10;}
	.st2{fill:none;stroke:#FFFFFF;stroke-width:30;stroke-linecap:round;stroke-miterlimit:10;}
</style>
<path class="st0" d="M282.7,344.2c-45.2,45.2-34.5,117.2-21.1,135.5c20.8,28.5,62.6,20,86.7,57.8c14.6,22.9,5.5,35.8,13.3,69.9
	c10.5,46.5,47.6,111.2,108.4,126.5c57.3,14.4,110.4-21.3,125.3-31.3c19.2-12.9,43.5-37.4,55.5-50.7"/>
<line class="st1" x1="504.3" y1="611.6" x2="606.1" y2="509.8"/>
<circle class="st2" cx="452.6" cy="453.7" r="57.8"/>
<path class="st2" d="M385.1,438.2L190.4,243.5c-2.2-2.2-5.2-3.6-8.4-3.8l-20.8-1.3c-3.2-0.2-6.1-1.5-8.4-3.8L80,161.7
	c-2.4-2.4-3.8-5.6-3.8-9v0c0-3.5,1.3-6.8,3.8-9.3l31.2-31.2"/>
<line class="st2" x1="77.5" y1="191.9" x2="91.4" y2="178.1"/>
<line class="st2" x1="114.8" y1="229.2" x2="128.6" y2="215.4"/>
<path class="st2" d="M437.1,386.2L242.4,191.5c-2.2-2.2-3.6-5.2-3.8-8.4l-1.3-20.8c-0.2-3.2-1.5-6.1-3.8-8.4l-72.9-72.9
	c-2.4-2.4-5.6-3.8-9-3.8h0c-3.5,0-6.8,1.3-9.3,3.8l-31.2,31.2"/>
<path class="st0" d="M340.9,286c45.2-45.2,117.2-34.5,135.5-21.1c28.5,20.8,20,62.6,57.8,86.7c22.9,14.6,35.8,5.5,69.9,13.3
	c46.5,10.5,111.2,47.6,126.5,108.4c14.4,57.3-21.3,110.4-31.3,125.3c-12.9,19.2-37.4,43.5-50.7,55.5"/>
<line class="st2" x1="176.8" y1="92" x2="190.7" y2="78.1"/>
<line class="st2" x1="214.1" y1="129.3" x2="227.9" y2="115.4"/>
</svg>
