<?xml version="1.0" encoding="utf-8"?>
<!-- Generator: Adobe Illustrator 27.6.1, SVG Export Plug-In . SVG Version: 6.00 Build 0)  -->
<svg version="1.1" id="Layer_1" xmlns="http://www.w3.org/2000/svg" xmlns:xlink="http://www.w3.org/1999/xlink" x="0px" y="0px"
	 viewBox="0 0 907.6 926.1" style="enable-background:new 0 0 907.6 926.1;" xml:space="preserve">
<style type="text/css">
	.st0{display:none;}
	.st1{display:inline;fill:#FFFFFF;}
	.st2{display:inline;}
	.st3{fill:#FFFFFF;}
	.st4{fill:#100F0F;}
	.st5{fill:#0C0B0B;}
	.st6{fill:#3E3C3C;}
	.st7{fill:#3D3B3B;}
	.st8{fill:#393736;}
	.st9{fill:#393737;}
	.st10{fill:#FDFDFD;}
	.st11{fill:#0F0E0E;}
	.st12{fill:#FEFEFE;}
	.st13{fill:#080707;}
	.st14{display:inline;fill:#100F0F;}
	.st15{display:inline;fill:#0C0B0B;}
</style>
<g class="st0">
	<path class="st1" d="M776.1,791.7c-214.9,0-429.8,0-644.7,0c-3.5,0-6.4-2.9-6.4-6.4c0-214.9,0-429.8,0-644.7c0-3.5,2.9-6.4,6.4-6.4
		c214.9,0,429.8,0,644.7,0c3.5,0,6.4,2.9,6.4,6.4c0,214.9,0,429.8,0,644.7C782.5,788.9,779.7,791.7,776.1,791.7z M680.9,396.8
		c-102.4,40.7-364.7,39.6-453.7,1.7c-5.6-2.4-5-10.6,0.9-12.1c24.8-6.2,47.7-11.9,71.1-17.7c5.1-1.3,6.6-7.8,2.5-11.1
		c-20.4-16.7-42.2-6.1-62.7-1.2c-22.6,5.4-53.1,8.4-53.4,37.9c-0.3,29.8,30.1,33.6,52.7,38.5c128.5,27.7,258,26.4,387.6,9.6
		c27.6-3.6,55-11.3,81.3-20.6c16.9-6,30.7-19.3,17.7-40.4c-14.7-24.1-75.2-35.1-110-23.8c-6.1,2-5.7,10.8,0.6,12.3
		c21.6,5,43,9.9,64.4,14.8C686.1,386,686.7,394.5,680.9,396.8z M633.1,656.5c0,4.2,4,7.2,8,6.2c22.4-5.9,42.3-9.9,60.4-18
		c11.4-5.1,26.8-18.2,27.2-28.3c2.5-54.6,1.4-109.4,1.3-164.2c0-4.4-4.4-7.5-8.6-6c-26.1,9.7-49.8,18.1-72.8,28
		c-6.4,2.8-14.8,11.1-14.9,17.1C632.7,544.8,633,598.4,633.1,656.5z M193.2,444.4c-4.2-2.3-9.4,0.8-9.4,5.6
		c-0.1,55.3-0.7,106.1,0.7,156.9c0.3,9.9,7.1,24.4,15.1,28.5c22,11.1,45.7,18.8,73,28.9c4.2,1.5,8.6-1.5,8.6-6v-109
		c0-64.8-0.1-64.6-58.9-90C213.1,455.3,204.3,450.4,193.2,444.4z M423.4,492.8c-27.8-1.9-54.3-3.8-81.7-5.7
		c-3.7-0.3-6.8,2.7-6.8,6.4v169.7c0,3.3,2.5,6.1,5.9,6.4c27.3,2.2,53.9,4.4,81.7,6.7c3.7,0.3,6.9-2.6,6.9-6.4V499.2
		C429.3,495.8,426.7,493.1,423.4,492.8z M491.4,676.9c28.7-2.9,55.2-5.6,81.5-8.3c3.3-0.3,5.7-3.1,5.7-6.3v-171
		c0-3.8-3.3-6.8-7.1-6.3c-28.1,3.4-54.6,6.6-81.5,9.9c-3.2,0.4-5.6,3.1-5.6,6.3v169.4C484.3,674.4,487.6,677.3,491.4,676.9z
		 M730.1,675.4L730.1,675.4c-1.5-2.5-4.4-3.7-7.2-2.9c-174.8,49.2-349.5,49.3-526.7,1.8c-4.7-1.3-9,3-7.8,7.7
		c5.6,23.1,28.7,25.8,47.1,30.1c110.8,26.2,223.3,25.1,335.8,16.5c40.7-3.1,81.2-11.7,120.9-21.4c13.2-3.2,24.5-14.5,36.3-23.5
		C731.1,681.7,731.8,678.2,730.1,675.4z M174.9,240.3c0,1,0,2,0,3.1c0,2.1,1,4.1,2.8,5.3c29.5,20,59.6,39,88.1,60.4
		c41.8,31.4,82,64.9,123.6,96.5c5.6,4.3,17.2,5.7,23.3,2.9c6.2-2.9,13.6-13.6,12.5-19.5c-1.3-7.8-9-16.4-16.3-20.8
		c-19.1-11.7-40.4-19.8-59.1-32c-49.8-32.6-98.4-67-148.2-99.5c-5.2-3.4-13-2.7-20.5-2.6C177.6,233.9,174.9,236.8,174.9,240.3z
		 M739.5,243l-0.1-3.2c-0.1-3.5-3-6.2-6.5-6.2c-7.5,0.1-15.3-0.3-20.8,3.1c-71.5,43.9-142.6,88.6-213.2,134.1
		c-5.8,3.7-10.8,14.7-9.8,21.4c1,6.8,9.3,16.6,15.5,17.5c7.8,1.1,18.1-3.8,24.7-9.2c14.6-12,26.2-27.9,41.6-38.7
		c54.7-38.5,110.5-75.6,165.8-113.2C738.5,247.3,739.5,245.2,739.5,243z M419.9,349.2c29.5,18.1,54.3,17.8,80.3-0.2
		c5.1-3.6,2.6-11.6-3.6-11.6h-73.3C416.8,337.4,414.4,345.8,419.9,349.2z"/>
	<path class="st2" d="M680,384.6c-21.4-4.9-42.8-9.8-64.4-14.8c-6.3-1.4-6.7-10.3-0.6-12.3c34.8-11.3,95.2-0.3,110,23.8
		c12.9,21.1-0.9,34.4-17.7,40.4c-26.3,9.3-53.7,17-81.3,20.6c-129.6,16.8-259.1,18.1-387.6-9.6c-22.6-4.9-53-8.7-52.7-38.5
		c0.3-29.5,30.8-32.5,53.4-37.9c20.4-4.9,42.3-15.5,62.7,1.2c4,3.3,2.6,9.8-2.5,11.1c-23.3,5.8-46.3,11.5-71.1,17.7
		c-5.9,1.5-6.6,9.7-0.9,12.1c89.1,37.8,351.3,39,453.7-1.7C686.7,394.5,686.1,386,680,384.6z"/>
	<path class="st2" d="M641.1,662.7c-4,1.1-8-2-8-6.2c0-58.1-0.4-111.6,0.7-165.2c0.1-5.9,8.4-14.3,14.9-17.1
		c23-9.9,46.7-18.3,72.8-28c4.2-1.5,8.6,1.5,8.6,6c0.1,54.8,1.2,109.5-1.3,164.2c-0.5,10.1-15.8,23.2-27.2,28.3
		C683.4,652.7,663.5,656.7,641.1,662.7z"/>
	<path class="st2" d="M183.8,450c0-4.8,5.2-7.9,9.4-5.6c11.1,6,19.9,10.9,29,14.9c58.9,25.4,58.9,25.2,58.9,90v109
		c0,4.4-4.4,7.5-8.6,6c-27.3-10.1-51-17.8-73-28.9c-8-4-14.8-18.5-15.1-28.5C183.1,556.1,183.7,505.3,183.8,450z"/>
	<path class="st2" d="M429.3,499.2v170.6c0,3.7-3.2,6.7-6.9,6.4c-27.8-2.3-54.4-4.4-81.7-6.7c-3.3-0.3-5.9-3-5.9-6.4V493.5
		c0-3.7,3.1-6.6,6.8-6.4c27.4,1.9,53.9,3.8,81.7,5.7C426.7,493.1,429.3,495.8,429.3,499.2z"/>
	<path class="st2" d="M484.3,670.6V501.2c0-3.2,2.4-5.9,5.6-6.3c27-3.3,53.4-6.5,81.5-9.9c3.8-0.5,7.1,2.5,7.1,6.3v171
		c0,3.3-2.5,6-5.7,6.3c-26.3,2.7-52.8,5.4-81.5,8.3C487.6,677.3,484.3,674.4,484.3,670.6z"/>
	<path class="st2" d="M730.1,675.4c1.6,2.8,0.9,6.3-1.6,8.3c-11.8,9-23.1,20.3-36.3,23.5c-39.7,9.7-80.3,18.3-120.9,21.4
		c-112.4,8.6-225,9.8-335.8-16.5C217,707.7,194,705,188.4,682c-1.1-4.7,3.1-9,7.8-7.7c177.2,47.5,351.9,47.4,526.7-1.8
		C725.7,671.7,728.7,672.9,730.1,675.4L730.1,675.4z"/>
	<path class="st2" d="M174.9,240.3c0-3.5,2.8-6.3,6.3-6.4c7.5-0.1,15.3-0.8,20.5,2.6c49.8,32.5,98.4,67,148.2,99.5
		c18.7,12.2,40,20.3,59.1,32c7.3,4.4,15,13.1,16.3,20.8c1,5.9-6.3,16.6-12.5,19.5s-17.7,1.4-23.3-2.9
		c-41.6-31.6-81.8-65.2-123.6-96.5c-28.4-21.4-58.6-40.4-88.1-60.4c-1.7-1.2-2.8-3.2-2.8-5.3C174.9,242.3,174.9,241.3,174.9,240.3z"
		/>
	<path class="st2" d="M739.5,243c0.1,2.2-1,4.3-2.8,5.5c-55.4,37.6-111.1,74.7-165.8,113.2c-15.3,10.8-26.9,26.7-41.6,38.7
		c-6.6,5.4-16.9,10.3-24.7,9.2c-6.2-0.9-14.5-10.7-15.5-17.5c-1-6.7,4-17.7,9.8-21.4c70.6-45.4,141.7-90.1,213.2-134.1
		c5.5-3.4,13.3-2.9,20.8-3.1c3.5-0.1,6.3,2.7,6.5,6.2L739.5,243z"/>
	<path class="st2" d="M423.2,337.4h73.3c6.2,0,8.8,8.1,3.6,11.6c-26,18-50.8,18.3-80.3,0.2C414.4,345.8,416.8,337.4,423.2,337.4z"/>
</g>
<g>
	<path class="st3" d="M860.2,302.6c-0.2-48.1-47.6-18.3-115.3-18.5c-192.3-0.6-384.3-0.7-576.4,0.1c-80,0.4-123.1-38.9-123.6,18.5
		c-1.2,136.8-0.4,342.9,1.1,479.8c0.6,57.1,44.7,86.3,123.6,86.6c96.1,0.4,192.1,0.1,288.2,0.1s192.1,0.6,288-0.2
		c70.9-0.7,113.4-30.9,113.7-81.7C860.4,646.6,861,443.2,860.2,302.6z M197.6,840.6c-97.7-1.4-123.8-10.2-123.8-82.6
		c0-61.4,0-110.6,0.2-171.9c0-67.6,0.2-135.4,0-203.1c0-24.8,9.9-60.8,42.6-72.6c61.1-22.1,89.4,5.3,89.4,54.5
		c0,51.4,0.7,127.9,4,179.2c1.5,22.2-5,31,20.3,36.7c9.8,4.9,8.6,17.4,8.6,24.8c0.2,72.6-0.8,133.2,0.7,205.8
		C240,834.2,229.3,841.1,197.6,840.6z M436.4,606.2c-1.8,74.1-0.3,125.6-0.3,199.7c0,3.8,0.6,5.7-2.3,16.5
		c-6.4,24.1-84.7,17.3-134.5,17.3c-26.4,0-30.4-11.4-30.2-27.1c0.7-38.8,0.2-63.5,0.2-102.4c0-31.4-1.5-62.7,0.7-94.1
		c1-14.8-3.2-32,15.1-36.9c23.2-3.2,18.9-20.8,19.1-30.3c0.5-66.5,1.8-133-0.5-199.6c-0.8-27.1,13.4-46.7,48.9-46.6
		c34.5,0,45.9,20.8,45.2,45.3c-1.7,66.5-0.7,133-0.5,199.6c0,13.9-2.3,27.7,18.8,30.4C416.1,578.1,437,576.8,436.4,606.2z
		 M581.4,840.4c-121.2,0.7-118.8,5.9-118.8-79.3c0-47.6,0.4-81.4,0.4-129c0-53.7-1.4-49.1,21.6-53c13.6-2.2,14.4-18.1,14.4-27.6
		c0.5-66.3,1.8-132.8-0.5-199.1c-1-27.4,13.8-49.6,48.8-49.7c30-0.1,47.2,24.9,47,51.2c-0.2,33.8-0.7,67.5-0.7,101.4
		c0,22.6,0.8,45.2,0.8,67.5c0,23.9-10.6,46.1,23.6,57.3c9.6,4.7,9.5,24.1,9.6,32.8c0.3,70.1-1,125.8,0.8,196
		C629.3,834.7,618.6,840.1,581.4,840.4z M821.5,588.7c0,66.5,0.3,118.6,0.1,185.1c-0.2,56.7-62.2,68-130.4,66.6
		c-17.4,0.2-38.4,4.2-34.8-24.9c0.7-71.4-0.6-128.7-0.1-200.1c-0.2-30-3.7-31.8,20.9-38.9c9.1-3.8,10.8-15,11-24.7
		c1-62.7-0.3-125.5,1.2-188.2c0.3-16.3-2.4-59.6,25.7-60.8c38.7-1.6,97.8,7.7,103.9,46.1c2.3,14.3,2.7,26.3,2.7,40.2
		C821.4,455.6,821.5,522.1,821.5,588.7z"/>
</g>
<g class="st0">
	<g class="st2">
		<path class="st3" d="M135,781.8c0-205.2,0.3-410.4-0.5-615.6c-0.1-18.8,3.8-22.7,22.6-22.6c197.8,0.9,395.7,0.9,593.5,0
			c18.8-0.1,22.7,3.8,22.6,22.6c-0.9,197.8-0.9,395.7,0,593.5c0.1,18.8-3.8,22.7-22.6,22.6C545.4,781.5,340.2,781.8,135,781.8z"/>
		<path class="st4" d="M715.9,466.1c0,70.5,0.2,141-0.1,211.4c-0.1,34.2-13.3,47.4-47.7,47.4c-141,0.2-281.9,0.2-422.9,0
			c-31.4-0.1-46.9-14.9-47-45.8c-0.3-142-0.3-284,0-426c0.1-30.9,15.6-45.8,47-45.8c141-0.2,281.9-0.2,422.9,0
			c34.5,0,47.6,13.2,47.7,47.4C716,325.2,715.9,395.7,715.9,466.1z"/>
		<path class="st3" d="M693.6,469.3c0,66.2-0.6,132.4,0.3,198.6c0.3,24.1-8.4,34.1-33.1,33.9c-135.6-0.6-271.2-0.6-406.7,0
			c-25,0.1-32.6-10.3-32.5-34.2c0.7-134.5,0.7-269.1,0-403.6c-0.1-24.2,7.8-34,32.7-33.8c135.6,0.7,271.2,0.7,406.7,0
			c25-0.1,33.1,10.1,32.8,34C693,332.7,693.6,401,693.6,469.3z"/>
		<path class="st5" d="M645.9,466.7C645.8,570,560.4,655,457,654.8c-102.8-0.2-188.8-86.5-188.5-189.2
			c0.3-102.8,86.4-188.2,189.6-188C561.4,277.7,646,363,645.9,466.7z"/>
		<path class="st6" d="M657.3,246.4c10.8,1.9,17.7,7.8,17.1,18.8c-0.6,10.6-6.9,17.7-18.1,17.3c-11.1-0.4-17.1-7.7-16.7-18.5
			C639.9,253.2,646.7,247.4,657.3,246.4z"/>
		<path class="st7" d="M277,261.7c-0.8,11.2-6.6,18.3-17.5,18.4c-10.6,0.1-18-6-18-17.3c-0.1-10.9,5.9-17.8,17.2-18.2
			C270,244.3,275.3,251.4,277,261.7z"/>
		<path class="st8" d="M275.8,666.6c-0.9,12.4-7.3,19.1-17.8,19.1c-10.4,0-17.5-6.7-17.4-17.8c0.1-11,6.9-17.8,17.4-17.8
			C268.7,650.1,274.5,657.4,275.8,666.6z"/>
		<path class="st9" d="M655.2,686c-10.4-2.4-17.1-8.4-16.1-19.4c0.9-10.8,7.8-17.2,18.7-16.4c10.8,0.8,16.8,8.3,16,19
			C673,679.9,666,685.5,655.2,686z"/>
		<path class="st10" d="M458.2,630.3c-90.6,0.3-164.9-73.3-165.1-163.6c-0.2-90.4,73.7-164.6,164-164.7
			c91-0.1,164.4,72.8,164.6,163.5C621.8,556.5,549,630,458.2,630.3z"/>
		<path class="st11" d="M324.2,465.7c0.2-72.4,59.8-132.4,132.1-133.1c73.9-0.7,134.1,59.5,134,134
			c-0.1,74.1-61.2,134.5-134.8,133.2C383.1,598.5,324,538.1,324.2,465.7z"/>
		<path class="st12" d="M458.9,357.9c60.7,0.6,107.5,47.4,107.7,107.7c0.3,61.1-48.5,109.2-110.3,108.7
			c-61.6-0.5-108.7-49.2-107.4-111.1C350.2,403.1,398,357.4,458.9,357.9z"/>
		<path class="st13" d="M501.1,467.4c-0.6,24.6-19,42.8-43.7,42.9c-25.9,0.2-45.3-19.5-44.7-45.3c0.6-24.3,19.6-42.9,43.9-43
			C482.6,421.9,501.7,441.4,501.1,467.4z"/>
	</g>
</g>
<g class="st0">
	<path class="st1" d="M773.2,782.4c-212.7,0-425.5,0-638.2,0c0-205.4,0.3-410.7-0.5-616.1c-0.1-18.9,3.8-22.7,22.7-22.7
		c205.4,0.9,410.7,0.5,616.1,0.5C773.2,356.9,773.2,569.6,773.2,782.4z"/>
	<path class="st14" d="M716.2,463.3c0,69.5,0.2,139-0.1,208.5c-0.1,34.3-13.2,47.5-47.6,47.5c-141.1,0.2-282.2,0.2-423.2,0
		c-31.4-0.1-47.1-14.9-47.1-45.7c-0.4-142.1-0.3-284.3,0-426.4c0.1-30.9,15.6-45.9,46.9-45.9c141.1-0.2,282.2-0.2,423.2,0
		c34.5,0,47.7,13.2,47.9,47.3C716.4,320.1,716.2,391.7,716.2,463.3z"/>
	<path class="st1" d="M457.2,696c-67.3,0-134.7-0.5-202,0.3c-23.9,0.3-33.9-7.9-33.7-33c0.8-135.7,0.7-271.4,0.1-407.1
		c-0.1-23.1,8.6-31.9,31.5-31.8c136.7,0.5,273.5,0.6,410.2,0c23.8-0.1,30.9,10.7,30.8,32.8c-0.5,135.7-0.5,271.4,0,407.1
		c0.1,23-9,32.1-31.9,31.9C593.9,695.5,525.5,696,457.2,696z"/>
	<path class="st15" d="M453.1,410.7c0-29.4-0.1-58.9,0-88.3c0-7.3-2.3-17.3,1.5-21.5c25.2-28.2,58.3,2.7,87.8-10.2
		c12.7-5.6,14.3,15.9,15.3,28.4c2.2,28.7-18,39.1-39.3,38.4c-29.5-1-28.5,14.5-28.2,34.9c0.7,59.9,0.6,119.8,0.1,179.7
		c-0.2,29.4-19.9,50.9-49.3,55.8c-36.2,6-82.1-12.6-89.3-37.7c-2.7-9.3-6.1-27.1,7.3-41.6c16.1-17.5,33.3-22.5,57.4-17.7
		c40.2,7.9,38.5-14.1,36.9-41.3C451.9,463.3,453.1,437,453.1,410.7z"/>
</g>
<g>
	<path class="st3" d="M738.8,136.5c-25.9,0-47,21.1-47,47s21.1,47,47,47s47-21.1,47-47S764.7,136.5,738.8,136.5z"/>
	<path class="st3" d="M800.6,58.4H103.8c-32.6,0-58.9,26.4-58.9,58.9v172h815.3V118C860.2,85.1,833.5,58.4,800.6,58.4z M172.7,228.9
		h-21.2l0.2,26.1c0.1,7.7-6.1,14.1-13.9,14.1c0,0-0.1,0-0.1,0c-7.7,0-13.9-6.2-14-13.9l-0.2-26.3h-22.1c-7.7,0-14-6.3-14-14
		s6.3-14,14-14h21.9l-0.9-101.1c-0.1-7.7,6.1-14.1,13.9-14.1c0,0,0.1,0,0.1,0c7.7,0,13.9,6.2,14,13.9l0.9,101.3h21.4
		c7.7,0,14,6.3,14,14S180.5,228.9,172.7,228.9z M297.8,190.4h-21.5l0.6,63.4c0.1,7.7-6.1,14.1-13.9,14.1c0,0-0.1,0-0.1,0
		c-7.7,0-13.9-6.2-14-13.9l-0.6-63.7h-21.8c-7.7,0-14-6.3-14-14s6.3-14,14-14H248l-0.6-63.7c-0.1-7.7,6.1-14.1,13.9-14.1
		c0,0,0.1,0,0.1,0c7.7,0,13.9,6.2,14,13.9l0.6,64h21.8c7.7,0,14,6.3,14,14S305.5,190.4,297.8,190.4z M423.6,152.7H402l0.9,101.2
		c0.1,7.7-6.1,14.1-13.9,14.1c0,0-0.1,0-0.1,0c-7.7,0-13.9-6.2-14-13.9L374,152.7h-21.8c-7.7,0-14-6.3-14-14s6.3-14,14-14h21.5
		l-0.2-25.9c-0.1-7.7,6.1-14.1,13.9-14.1c7.7-0.1,14.1,6.1,14.1,13.9l0.2,26.2h21.8c7.7,0,14,6.3,14,14S431.3,152.7,423.6,152.7z
		 M558,258.4c-41.3,0-75-33.6-75-75c0-41.3,33.6-75,75-75s75,33.6,75,75C633,224.8,599.4,258.4,558,258.4z M738.8,258.4
		c-41.3,0-75-33.6-75-75c0-41.3,33.6-75,75-75s75,33.6,75,75C813.7,224.8,780.1,258.4,738.8,258.4z"/>
</g>
<path class="st3" d="M605,183.5c0-25.9-21.1-47-47-47s-47,21.1-47,47s21.1,47,47,47S605,209.4,605,183.5"/>
</svg>
