<?xml version="1.0" encoding="utf-8"?>
<!-- Generator: Adobe Illustrator 27.6.1, SVG Export Plug-In . SVG Version: 6.00 Build 0)  -->
<svg version="1.1" id="Layer_1" xmlns="http://www.w3.org/2000/svg" xmlns:xlink="http://www.w3.org/1999/xlink" x="0px" y="0px"
	 viewBox="0 0 800 800" style="enable-background:new 0 0 800 800;" xml:space="preserve">
<style type="text/css">
	.st0{fill:none;stroke:#FFFFFF;stroke-width:27;stroke-miterlimit:10;}
	.st1{fill:#FFFFFF;stroke:#FFFFFF;stroke-width:30;stroke-linecap:round;stroke-miterlimit:10;}
	.st2{fill:#FFFFFF;stroke:#FFFFFF;stroke-miterlimit:10;}
</style>
<line class="st0" x1="693.1" y1="-117.3" x2="692.4" y2="-116.6"/>
<line class="st1" x1="160.6" y1="310.1" x2="366.4" y2="497.9"/>
<line class="st1" x1="459" y1="315.7" x2="646.3" y2="522"/>
<line class="st1" x1="475.6" y1="334" x2="435.8" y2="367.8"/>
<line class="st1" x1="628.4" y1="502.3" x2="602.4" y2="523.6"/>
<line class="st1" x1="548.8" y1="422.7" x2="522.7" y2="443.8"/>
<line class="st1" x1="345.5" y1="478.9" x2="378.2" y2="446.1"/>
<line class="st1" x1="176.8" y1="325" x2="204.4" y2="297.5"/>
<line class="st1" x1="254.6" y1="395.2" x2="280.9" y2="368.8"/>
<g>
	<path class="st2" d="M599.5,673.6c28.9,27.3,104.8,79,119.4,64.4l9.4-9.4l0.1-0.1l9.4-9.4c14.7-14.7-37.1-90.6-64.4-119.4
		l-9.8-10.5L589,663.7L599.5,673.6z"/>
	<path class="st2" d="M182.6,63.2l-59.5,59.5l-0.5,0.5l-59.5,59.5c-8.6,8.6-1.6,29.4,15.4,45.5l39.3,15c26.1,10,53.4,28.3,77.3,51.8
		l376.1,352.2l75.8-75.8L295,195.3c-23.5-23.9-41.8-51.3-51.8-77.3l-15-39.3C212.1,61.6,191.3,54.6,182.6,63.2z M215,245.2
		c9.8-9.8,25.7-9.8,35.5,0c9.8,9.8,9.8,25.7,0,35.5c-9.8,9.8-25.7,9.8-35.5,0C205.2,270.9,205.2,255,215,245.2z M293.8,356
		c-9.8-9.8-9.8-25.7,0-35.5c9.8-9.8,25.7-9.8,35.5,0c9.8,9.8,9.8,25.7,0,35.5C319.5,365.8,303.6,365.8,293.8,356z M389.6,417.9
		c-9.8-9.8-9.8-25.7,0-35.5c9.8-9.8,25.7-9.8,35.5,0c9.8,9.8,9.8,25.7,0,35.5c-2.5,2.5-5.3,4.3-8.3,5.5
		C407.8,427.1,397,425.3,389.6,417.9z M588.1,570c-9.8,9.8-25.7,9.8-35.5,0c-9.8-9.8-9.8-25.7,0-35.5c9.8-9.8,25.7-9.8,35.5,0
		C597.9,544.2,597.9,560.1,588.1,570z M508.6,490.4c-9.8,9.8-25.7,9.8-35.5,0c-9.8-9.8-9.8-25.7,0-35.5c9.8-9.8,25.7-9.8,35.5,0
		C518.4,464.7,518.4,480.6,508.6,490.4z"/>
</g>
</svg>
