<?xml version="1.0" encoding="utf-8"?>
<!-- Generator: Adobe Illustrator 27.6.1, SVG Export Plug-In . SVG Version: 6.00 Build 0)  -->
<svg version="1.1" id="Layer_1" xmlns="http://www.w3.org/2000/svg" xmlns:xlink="http://www.w3.org/1999/xlink" x="0px" y="0px"
	 viewBox="0 0 800 800" style="enable-background:new 0 0 800 800;" xml:space="preserve">
<style type="text/css">
	.st0{display:none;}
	.st1{display:inline;fill:#FFFFFF;}
	.st2{display:inline;}
	.st3{display:inline;fill:#030303;}
	.st4{display:inline;fill:#FDFDFD;}
	.st5{display:inline;fill:#FEFEFE;}
	.st6{fill:#FFFFFF;}
	.st7{fill:#100F0F;}
	.st8{fill:#0C0B0B;}
	.st9{fill:#3E3C3C;}
	.st10{fill:#3D3B3B;}
	.st11{fill:#393736;}
	.st12{fill:#393737;}
	.st13{fill:#FDFDFD;}
	.st14{fill:#0F0E0E;}
	.st15{fill:#FEFEFE;}
	.st16{fill:#080707;}
</style>
<g class="st0">
	<path class="st1" d="M722.3,728.7c-214.9,0-429.8,0-644.7,0c-3.5,0-6.4-2.9-6.4-6.4c0-214.9,0-429.8,0-644.7c0-3.5,2.9-6.4,6.4-6.4
		c214.9,0,429.8,0,644.7,0c3.5,0,6.4,2.9,6.4,6.4c0,214.9,0,429.8,0,644.7C728.7,725.9,725.9,728.7,722.3,728.7z M627.1,333.8
		c-102.4,40.7-364.7,39.6-453.7,1.7c-5.6-2.4-5-10.6,0.9-12.1c24.8-6.2,47.7-11.9,71.1-17.7c5.1-1.3,6.6-7.8,2.5-11.1
		c-20.4-16.7-42.2-6.1-62.7-1.2c-22.6,5.4-53.1,8.4-53.4,37.9c-0.3,29.8,30.1,33.6,52.7,38.5c128.5,27.7,258,26.4,387.6,9.6
		c27.6-3.6,55-11.3,81.3-20.6c16.9-6,30.7-19.3,17.7-40.4c-14.7-24.1-75.2-35.1-110-23.8c-6.1,2-5.7,10.8,0.6,12.3
		c21.6,5,43,9.9,64.4,14.8C632.3,323,632.9,331.5,627.1,333.8z M579.3,593.5c0,4.2,4,7.2,8,6.2c22.4-5.9,42.3-9.9,60.4-18
		c11.4-5.1,26.8-18.2,27.2-28.3c2.5-54.6,1.4-109.4,1.3-164.2c0-4.4-4.4-7.5-8.6-6c-26.1,9.7-49.8,18.1-72.8,28
		c-6.4,2.8-14.8,11.1-14.9,17.1C578.9,481.8,579.2,535.4,579.3,593.5z M139.4,381.4c-4.2-2.3-9.4,0.8-9.4,5.6
		c-0.1,55.3-0.7,106.1,0.7,156.9c0.3,9.9,7.1,24.4,15.1,28.5c22,11.1,45.7,18.8,73,28.9c4.2,1.5,8.6-1.5,8.6-6v-109
		c0-64.8-0.1-64.6-58.9-90C159.3,392.3,150.5,387.4,139.4,381.4z M369.6,429.8c-27.8-1.9-54.3-3.8-81.7-5.7
		c-3.7-0.3-6.8,2.7-6.8,6.4v169.7c0,3.3,2.5,6.1,5.9,6.4c27.3,2.2,53.9,4.4,81.7,6.7c3.7,0.3,6.9-2.6,6.9-6.4V436.2
		C375.5,432.8,372.9,430.1,369.6,429.8z M437.6,613.9c28.7-2.9,55.2-5.6,81.5-8.3c3.3-0.3,5.7-3.1,5.7-6.3v-171
		c0-3.8-3.3-6.8-7.1-6.3c-28.1,3.4-54.6,6.6-81.5,9.9c-3.2,0.4-5.6,3.1-5.6,6.3v169.4C430.5,611.4,433.8,614.3,437.6,613.9z
		 M676.3,612.4L676.3,612.4c-1.5-2.5-4.4-3.7-7.2-2.9c-174.8,49.2-349.5,49.3-526.7,1.8c-4.7-1.3-9,3-7.8,7.7
		c5.6,23.1,28.7,25.8,47.1,30.1c110.8,26.2,223.3,25.1,335.8,16.5c40.7-3.1,81.2-11.7,120.9-21.4c13.2-3.2,24.5-14.5,36.3-23.5
		C677.3,618.7,678,615.2,676.3,612.4z M121.1,177.3c0,1,0,2,0,3.1c0,2.1,1,4.1,2.8,5.3c29.5,20,59.6,39,88.1,60.4
		c41.8,31.4,82,64.9,123.6,96.5c5.6,4.3,17.2,5.7,23.3,2.9c6.2-2.9,13.6-13.6,12.5-19.5c-1.3-7.8-9-16.4-16.3-20.8
		c-19.1-11.7-40.4-19.8-59.1-32c-49.8-32.6-98.4-67-148.2-99.5c-5.2-3.4-13-2.7-20.5-2.6C123.8,170.9,121.1,173.8,121.1,177.3z
		 M685.7,180l-0.1-3.2c-0.1-3.5-3-6.2-6.5-6.2c-7.5,0.1-15.3-0.3-20.8,3.1c-71.5,43.9-142.6,88.6-213.2,134.1
		c-5.8,3.7-10.8,14.7-9.8,21.4c1,6.8,9.3,16.6,15.5,17.5c7.8,1.1,18.1-3.8,24.7-9.2c14.6-12,26.2-27.9,41.6-38.7
		c54.7-38.5,110.5-75.6,165.8-113.2C684.7,184.3,685.7,182.2,685.7,180z M366.1,286.2c29.5,18.1,54.3,17.8,80.3-0.2
		c5.1-3.6,2.6-11.6-3.6-11.6h-73.3C363,274.4,360.6,282.8,366.1,286.2z"/>
	<path class="st2" d="M626.2,321.6c-21.4-4.9-42.8-9.8-64.4-14.8c-6.3-1.4-6.7-10.3-0.6-12.3c34.8-11.3,95.2-0.3,110,23.8
		c12.9,21.1-0.9,34.4-17.7,40.4c-26.3,9.3-53.7,17-81.3,20.6c-129.6,16.8-259.1,18.1-387.6-9.6c-22.6-4.9-53-8.7-52.7-38.5
		c0.3-29.5,30.8-32.5,53.4-37.9c20.4-4.9,42.3-15.5,62.7,1.2c4,3.3,2.6,9.8-2.5,11.1c-23.3,5.8-46.3,11.5-71.1,17.7
		c-5.9,1.5-6.6,9.7-0.9,12.1c89.1,37.8,351.3,39,453.7-1.7C632.9,331.5,632.3,323,626.2,321.6z"/>
	<path class="st2" d="M587.3,599.7c-4,1.1-8-2-8-6.2c0-58.1-0.4-111.6,0.7-165.2c0.1-5.9,8.4-14.3,14.9-17.1
		c23-9.9,46.7-18.3,72.8-28c4.2-1.5,8.6,1.5,8.6,6c0.1,54.8,1.2,109.5-1.3,164.2c-0.5,10.1-15.8,23.2-27.2,28.3
		C629.6,589.7,609.7,593.7,587.3,599.7z"/>
	<path class="st2" d="M130,387c0-4.8,5.2-7.9,9.4-5.6c11.1,6,19.9,10.9,29,14.9c58.9,25.4,58.9,25.2,58.9,90v109
		c0,4.4-4.4,7.5-8.6,6c-27.3-10.1-51-17.8-73-28.9c-8-4-14.8-18.5-15.1-28.5C129.3,493.1,129.9,442.3,130,387z"/>
	<path class="st2" d="M375.5,436.2v170.6c0,3.7-3.2,6.7-6.9,6.4c-27.8-2.3-54.4-4.4-81.7-6.7c-3.3-0.3-5.9-3-5.9-6.4V430.5
		c0-3.7,3.1-6.6,6.8-6.4c27.4,1.9,53.9,3.8,81.7,5.7C372.9,430.1,375.5,432.8,375.5,436.2z"/>
	<path class="st2" d="M430.5,607.6V438.2c0-3.2,2.4-5.9,5.6-6.3c27-3.3,53.4-6.5,81.5-9.9c3.8-0.5,7.1,2.5,7.1,6.3v171
		c0,3.3-2.5,6-5.7,6.3c-26.3,2.7-52.8,5.4-81.5,8.3C433.8,614.3,430.5,611.4,430.5,607.6z"/>
	<path class="st2" d="M676.3,612.4c1.6,2.8,0.9,6.3-1.6,8.3c-11.8,9-23.1,20.3-36.3,23.5c-39.7,9.7-80.3,18.3-120.9,21.4
		c-112.4,8.6-225,9.8-335.8-16.5c-18.5-4.4-41.5-7.1-47.1-30.1c-1.1-4.7,3.1-9,7.8-7.7c177.2,47.5,351.9,47.4,526.7-1.8
		C671.9,608.7,674.9,609.9,676.3,612.4L676.3,612.4z"/>
	<path class="st2" d="M121.1,177.3c0-3.5,2.8-6.3,6.3-6.4c7.5-0.1,15.3-0.8,20.5,2.6c49.8,32.5,98.4,67,148.2,99.5
		c18.7,12.2,40,20.3,59.1,32c7.3,4.4,15,13.1,16.3,20.8c1,5.9-6.3,16.6-12.5,19.5s-17.7,1.4-23.3-2.9
		c-41.6-31.6-81.8-65.2-123.6-96.5c-28.4-21.4-58.6-40.4-88.1-60.4c-1.7-1.2-2.8-3.2-2.8-5.3C121.1,179.3,121.1,178.3,121.1,177.3z"
		/>
	<path class="st2" d="M685.7,180c0.1,2.2-1,4.3-2.8,5.5c-55.4,37.6-111.1,74.7-165.8,113.2c-15.3,10.8-26.9,26.7-41.6,38.7
		c-6.6,5.4-16.9,10.3-24.7,9.2c-6.2-0.9-14.5-10.7-15.5-17.5c-1-6.7,4-17.7,9.8-21.4c70.6-45.4,141.7-90.1,213.2-134.1
		c5.5-3.4,13.3-2.9,20.8-3.1c3.5-0.1,6.3,2.7,6.5,6.2L685.7,180z"/>
	<path class="st2" d="M369.4,274.4h73.3c6.2,0,8.8,8.1,3.6,11.6c-26,18-50.8,18.3-80.3,0.2C360.6,282.8,363,274.4,369.4,274.4z"/>
</g>
<g class="st0">
	<path class="st1" d="M81.2,718.8c0-205.2,0.3-410.4-0.5-615.6c-0.1-18.8,3.8-22.7,22.6-22.6c197.8,0.9,395.7,0.9,593.5,0
		c18.8-0.1,22.7,3.8,22.6,22.6c-0.9,197.8-0.9,395.7,0,593.5c0.1,18.8-3.8,22.7-22.6,22.6C491.6,718.5,286.4,718.8,81.2,718.8z"/>
	<path class="st3" d="M406.3,642.2c-57.9,0-115.7,0.2-173.6-0.1c-47.5-0.2-74.1-24.7-74.5-72.6c-0.9-114.7-0.8-229.3-0.1-344
		c0.3-48.1,25.7-73.4,73.9-73.7c115.7-0.7,231.4-0.6,347.2-0.1c40.8,0.2,69,28,69.1,68.3c0.5,117.8,0.5,235.6,0,353.5
		c-0.2,42.6-25.8,67.9-68.5,68.5C522,642.7,464.2,642.2,406.3,642.2z"/>
	<path class="st4" d="M628,395.1c0,55.7,0.1,111.5,0,167.2c-0.1,47.5-50.8,67.6-90.2,56.1c-7.2-2.1-9.3,9-9.3-21.1
		c0-59.9-0.3-119.9,0-179.8c-0.1-25.1-1.4-20.7,12.2-29.1c5.5-3.2,6.9-16.1,7-24.2c0.6-52.6-0.2-105.2,0.7-157.8
		c0.2-13.7-1.1-36.2,15.8-37.2c23.3-1.3,46.5-1.2,58.8,24.7c5.2,10.9,5.1,22.2,5.1,33.8C627.9,283.6,628,339.4,628,395.1z"/>
	<path class="st4" d="M628,399.9c0,55.7,0.1,111.5,0,167.2c-0.1,47.5-49.7,58.9-90.8,57.7c-5.9-0.2-8.8,1.5-8.7-22.7
		c0.4-59.9-0.3-119.9,0-179.8c-0.1-25.1-1.4-20.7,12.2-29.1c5.5-3.2,6.9-16.1,7-24.2c0.6-52.6-0.2-105.2,0.7-157.8
		c0.2-13.7-1.1-36.2,15.8-37.2c23.3-1.3,46.5-1.2,58.8,24.7c5.2,10.9,5.1,22.2,5.1,33.8C627.9,288.4,628,344.1,628,399.9z"/>
	<path class="st4" d="M177.7,397.8c0-56.7,0.1-113.5,0-170.2c0-20.8,4.4-40.7,24.1-50.6c36.8-18.5,55.4-5.8,55.4,35.4
		c0,43.1-1.4,86.2,0.6,129.2c0.9,18.6-1.7,45.1,17.1,54.7c2.4,1.2,2.1,11.7,2.1,17.9c0.1,60.9-0.5,121.9,0.4,182.8
		c0.3,19-6.3,25.5-25.4,26.2c-60.6,2.1-74.4-10.4-74.4-71C177.6,500.7,177.6,449.2,177.7,397.8z"/>
	<path class="st5" d="M295.4,501.8c0-26.3-0.9-52.6,0.4-78.9c0.6-12.4-1.5-26.8,7.9-28.7c6.5-1.3,12.6-19.6,12.7-27.6
		c0.3-55.8,1.1-111.5-0.3-167.3c-0.5-22.7,8.1-28.8,29.5-28.7c20.8,0,27.6,7.1,27.2,27.6c-1,55.7-0.4,111.5-0.3,167.3
		c0,11.7,4.1,25.9,11.3,25.5c0,0,12.6-1,12.2,23.6c-1.1,62.1,0,124.1,0,186.2c0,3.2-0.4,0-0.4,9.3c0,19.4-52.2,12.1-82.2,12.1
		c-15.9,0-18.3-9.6-18.2-22.7C295.6,567,295.4,534.4,295.4,501.8z"/>
	<path class="st5" d="M490.8,288.2c0,18.9,0.5,37.9,0.5,56.6c0,20-3.2,45.3,17.4,54.6c2.8,1.3,2.5,13.6,2.6,20.9
		c0.2,58.8-0.6,117.6,0.5,176.4c0.4,21.5-6.1,29.4-28.5,29.6c-73,0.6-73,1.5-73-69.9c0-39.9,0.4-79.8,0.4-119.7
		c0-45-1.5-44.7,14.4-44.8c5.1,0,8.7-15.2,8.7-23.1c0.3-55.6,1.1-111.3-0.3-166.9c-0.6-23,8.6-28.1,29.7-28.2
		c18.1-0.1,28.1,7.4,28,29.5C491.1,231.5,490.8,259.8,490.8,288.2z"/>
</g>
<g class="st0">
	<g class="st2">
		<path class="st6" d="M81.2,718.8c0-205.2,0.3-410.4-0.5-615.6c-0.1-18.8,3.8-22.7,22.6-22.6c197.8,0.9,395.7,0.9,593.5,0
			c18.8-0.1,22.7,3.8,22.6,22.6c-0.9,197.8-0.9,395.7,0,593.5c0.1,18.8-3.8,22.7-22.6,22.6C491.6,718.5,286.4,718.8,81.2,718.8z"/>
		<path class="st7" d="M662.1,403.1c0,70.5,0.2,141-0.1,211.4c-0.1,34.2-13.3,47.4-47.7,47.4c-141,0.2-281.9,0.2-422.9,0
			c-31.4-0.1-46.9-14.9-47-45.8c-0.3-142-0.3-284,0-426c0.1-30.9,15.6-45.8,47-45.8c141-0.2,281.9-0.2,422.9,0
			c34.5,0,47.6,13.2,47.7,47.4C662.2,262.2,662.1,332.7,662.1,403.1z"/>
		<path class="st6" d="M639.8,406.3c0,66.2-0.6,132.4,0.3,198.6c0.3,24.1-8.4,34.1-33.1,33.9c-135.6-0.6-271.2-0.6-406.7,0
			c-25,0.1-32.6-10.3-32.5-34.2c0.7-134.5,0.7-269.1,0-403.6c-0.1-24.2,7.8-34,32.7-33.8c135.6,0.7,271.2,0.7,406.7,0
			c25-0.1,33.1,10.1,32.8,34C639.2,269.7,639.8,338,639.8,406.3z"/>
		<path class="st8" d="M592.1,403.7C592,507,506.6,592,403.2,591.8c-102.8-0.2-188.8-86.5-188.5-189.2
			c0.3-102.8,86.4-188.2,189.6-188C507.6,214.7,592.2,300,592.1,403.7z"/>
		<path class="st9" d="M603.5,183.4c10.8,1.9,17.7,7.8,17.1,18.8c-0.6,10.6-6.9,17.7-18.1,17.3c-11.1-0.4-17.1-7.7-16.7-18.5
			C586.1,190.2,592.9,184.4,603.5,183.4z"/>
		<path class="st10" d="M223.2,198.7c-0.8,11.2-6.6,18.3-17.5,18.4c-10.6,0.1-18-6-18-17.3c-0.1-10.9,5.9-17.8,17.2-18.2
			C216.2,181.3,221.5,188.4,223.2,198.7z"/>
		<path class="st11" d="M222,603.6c-0.9,12.4-7.3,19.1-17.8,19.1c-10.4,0-17.5-6.7-17.4-17.8c0.1-11,6.9-17.8,17.4-17.8
			C214.9,587.1,220.7,594.4,222,603.6z"/>
		<path class="st12" d="M601.4,623c-10.4-2.4-17.1-8.4-16.1-19.4c0.9-10.8,7.8-17.2,18.7-16.4c10.8,0.8,16.8,8.3,16,19
			C619.2,616.9,612.2,622.5,601.4,623z"/>
		<path class="st13" d="M404.4,567.3c-90.6,0.3-164.9-73.3-165.1-163.6c-0.2-90.4,73.7-164.6,164-164.7
			c91-0.1,164.4,72.8,164.6,163.5C568,493.5,495.2,567,404.4,567.3z"/>
		<path class="st14" d="M270.4,402.7c0.2-72.4,59.8-132.4,132.1-133.1c73.9-0.7,134.1,59.5,134,134
			c-0.1,74.1-61.2,134.5-134.8,133.2C329.3,535.5,270.2,475.1,270.4,402.7z"/>
		<path class="st15" d="M405.1,294.9c60.7,0.6,107.5,47.4,107.7,107.7c0.3,61.1-48.5,109.2-110.3,108.7
			c-61.6-0.5-108.7-49.2-107.4-111.1C296.4,340.1,344.2,294.4,405.1,294.9z"/>
		<path class="st16" d="M447.3,404.4c-0.6,24.6-19,42.8-43.7,42.9c-25.9,0.2-45.3-19.5-44.7-45.3c0.6-24.3,19.6-42.9,43.9-43
			C428.8,358.9,447.9,378.4,447.3,404.4z"/>
	</g>
</g>
<g>
	<path class="st6" d="M432.5,426.4c-0.7,43.7-1.5,87.3-2.5,131c0,1.4-0.1,2.8-0.2,4.2c45.9-10.6,76.7-38,74.5-68.1
		C502.1,464.4,474.2,442.6,432.5,426.4z"/>
	<path class="st6" d="M400.2,36.1c-197,0-356.7,163.3-356.7,364.8s159.7,364.8,356.7,364.8s356.7-163.3,356.7-364.8
		S597.2,36.1,400.2,36.1z M372.1,632.3l0.3-0.7c-2.4,0.6-4.9,1.1-7.5,1.5c-47,7.3-106.1-19.6-114.8-54.5
		c-3.3-12.9-7.4-37.6,10.4-57.2c21.2-23.7,43.7-30.2,74.7-23c51.9,11.9,50.1-18.4,48.6-56c-0.4-10.5-0.5-21-0.5-31.5
		c-78-21.5-117.7-53.1-121.5-103c-5.2-69.8,55.6-135,153.8-142.4l0,0.7c27.7-4.8,58.7,16.6,87.6,3.9c16.5-7.5,18.1,22.3,19.2,39.6
		c2.2,39.7-24.2,53.5-51.7,52c-38.2-2.2-37.2,19.3-37.2,47.5c-0.1,17-0.2,33.9-0.3,50.9c81.1,22.7,124.4,57.2,129.2,121.5
		C568.2,557.7,480.7,624.2,372.1,632.3z"/>
	<path class="st6" d="M386.6,232.6c-38.7,9.9-70.9,34.2-68.9,60.6c1.9,25.8,29.2,40.2,67.1,52.6c0.1-4.1,0.2-8.3,0.3-12.5
		C385.6,299.9,386.1,266.3,386.6,232.6z"/>
</g>
</svg>
