<?xml version="1.0" encoding="utf-8"?>
<!-- Generator: Adobe Illustrator 27.6.1, SVG Export Plug-In . SVG Version: 6.00 Build 0)  -->
<svg version="1.1" id="Layer_1" xmlns="http://www.w3.org/2000/svg" xmlns:xlink="http://www.w3.org/1999/xlink" x="0px" y="0px"
	 viewBox="0 0 200 200" style="enable-background:new 0 0 200 200;" xml:space="preserve">
<style type="text/css">
	.st0{fill:#FFFFFF;}
	.st1{fill:none;stroke:#FFFFFF;stroke-width:8;stroke-miterlimit:10;}
</style>
<g>
	<path class="st0" d="M46.3,60.2h39c1.3,0,2.3,1,2.3,2.3v4.2c0,1.3-1,2.3-2.3,2.3H56.8c-1.3,0-2.3,1-2.3,2.3v22.3
		c0,1.3,1,2.3,2.3,2.3h26c1.3,0,2.3,1,2.3,2.3v4c0,1.3-1,2.3-2.3,2.3h-26c-1.3,0-2.3,1-2.3,2.3v32c0,1.3-1,2.3-2.3,2.3h-5.8
		c-1.3,0-2.3-1-2.3-2.3V62.5C44,61.2,45.1,60.2,46.3,60.2z"/>
	<path class="st0" d="M148.2,141.1c-0.8,0-1.6-0.4-2-1.2l-9.7-16.7c-4.2-6.8-6.8-11.3-9.4-16h-0.2c-2.3,4.7-4.6,9-8.8,16.1
		l-9.1,16.6c-0.4,0.7-1.2,1.2-2,1.2h-6.6c-1.8,0-2.9-2-2-3.5l21.9-36.3c0.4-0.7,0.4-1.6,0-2.4l-21-35.3c-0.9-1.5,0.2-3.5,2-3.5h6.7
		c0.8,0,1.6,0.4,2,1.2l10,17.8c3,5.3,5.3,9.4,7.4,13.7h0.4c2.3-4.8,4.3-8.5,7.3-13.7l10.4-17.8c0.4-0.7,1.2-1.1,2-1.1h6.5
		c1.8,0,2.9,2,2,3.5l-21.7,34.7c-0.5,0.7-0.5,1.7,0,2.4l22.4,36.8c0.9,1.5-0.2,3.5-2,3.5H148.2z"/>
</g>
<path class="st1" d="M173,188.7H28.2c-8.6,0-15.6-7-15.6-15.6V28.2c0-8.6,7-15.6,15.6-15.6H173c8.6,0,15.6,7,15.6,15.6v144.9
	C188.7,181.7,181.7,188.7,173,188.7z"/>
</svg>
