<?xml version="1.0" encoding="utf-8"?>
<!-- Generator: Adobe Illustrator 26.0.3, SVG Export Plug-In . SVG Version: 6.00 Build 0)  -->
<svg version="1.1" id="Layer_1" xmlns="http://www.w3.org/2000/svg" xmlns:xlink="http://www.w3.org/1999/xlink" x="0px" y="0px"
	 viewBox="0 0 180 180" style="enable-background:new 0 0 180 180;" xml:space="preserve">
<style type="text/css">
	.st0{fill:none;stroke:#000000;stroke-width:4;stroke-linecap:round;stroke-miterlimit:10;}
	.st1{fill:none;stroke:#000000;stroke-width:4;stroke-linecap:round;stroke-linejoin:round;stroke-miterlimit:10;}
	.st2{fill:#FFFFFF;stroke:#000000;stroke-width:5;stroke-linecap:round;stroke-miterlimit:10;}
</style>
<g>
	<path d="M128.1,16c7.6,0,13.9,6.2,13.9,13.9v118.3c0,7.6-6.2,13.9-13.9,13.9H51.9c-7.6,0-13.9-6.2-13.9-13.9V29.9
		C38,22.2,44.2,16,51.9,16H128.1 M128.1,8H51.9C39.8,8,30,17.8,30,29.9v118.3c0,12.1,9.8,21.9,21.9,21.9h76.3
		c12.1,0,21.9-9.8,21.9-21.9V29.9C150,17.8,140.2,8,128.1,8L128.1,8z"/>
</g>
<circle class="st0" cx="117" cy="121" r="10"/>
<polyline class="st1" points="126.5,125.1 126.5,146.7 117.4,139.8 107.8,147 107.8,125.4 "/>
<line class="st2" x1="51.5" y1="135.5" x2="89" y2="135.5"/>
<line class="st2" x1="52.5" y1="115.5" x2="96" y2="115.5"/>
<line class="st2" x1="51.5" y1="96.5" x2="123" y2="96.5"/>
<line class="st2" x1="51.5" y1="76.5" x2="115" y2="76.5"/>
<line class="st2" x1="51.5" y1="56.5" x2="127" y2="56.5"/>
<line class="st2" x1="51.5" y1="36.5" x2="127" y2="36.5"/>
</svg>
