<?xml version="1.0" encoding="utf-8"?>
<!-- Generator: Adobe Illustrator 27.6.1, SVG Export Plug-In . SVG Version: 6.00 Build 0)  -->
<svg version="1.1" id="Layer_1" xmlns="http://www.w3.org/2000/svg" xmlns:xlink="http://www.w3.org/1999/xlink" x="0px" y="0px"
	 viewBox="0 0 800 800" style="enable-background:new 0 0 800 800;" xml:space="preserve">
<style type="text/css">
	.st0{fill:#FFFFFF;}
</style>
<path class="st0" d="M559.9,392.1L455.2,287.5L438,321.9c-20.4,29.8-75.4,102.9-100.2,128.9L232.7,565.6
	c-13.5,14.7-27.9,28.5-43.3,41.3l-66.3,55.3c-12.4,13-10,35.5,5.2,50.8l3.3,3.3c15.9,15.9,39.4,18.2,52.8,5.2l53.8-63.7
	c13-15.4,27-30,41.8-43.7l113.8-105.6c25.8-24.9,99.6-79.1,130.4-98L559.9,392.1z"/>
<path class="st0" d="M715.2,130.7c-61.9-61.9-165.9-58.4-232.3,7.9S413,308.9,475,370.8s165.9,58.4,232.3-7.9
	S777.1,192.6,715.2,130.7z M469.1,231.6c0.3-8.5,1.8-16.9,4.5-25l5.5-16.8l9.4-13.8c6.6-9.6,14.8-17.9,24.4-24.5l14.7-10.1l15.2-7
	c7.7-3.6,16-6,24.4-7.1 M482.7,296.5c-2.7-4.4-4.7-9.3-5.7-14.3l-2.5-11.7L614,130.9l11,2.3c4.7,1,9.2,2.4,13.6,4.3 M519.5,345.6
	l-5.6-1.2c-5.9-3.1-8.3-6-11.5-11.8l-2.4-6.4l172-172l7.6,3.2c5.2,3.6,5.6,3.4,9.2,8.7l2.8,7.7L519.5,345.6z M709.3,209.1
	c1.9,4.4,3.3,8.9,4.3,13.6l2.3,11L576.3,373.3l-11.7-2.5c-5.1-1.1-9.9-3-14.3-5.7 M720.8,279.5c-1.1,8.5-3.5,16.7-7.1,24.4l-7,15.2
	l-10.1,14.7c-6.6,9.6-14.9,17.8-24.5,24.4l-13.8,9.4l-16.8,5.5c-8.1,2.7-16.5,4.2-25,4.5"/>
<path class="st0" d="M235.6,390.7L340.3,286l17.2,34.5C378,350.3,433,423.3,457.7,449.4l105.1,114.8c13.5,14.7,27.9,28.5,43.3,41.3
	l66.3,55.3c12.4,13,10,35.5-5.2,50.8l-3.3,3.3c-15.9,15.9-39.4,18.2-52.8,5.2l-53.8-63.7c-13-15.4-27-30-41.8-43.7L401.7,507.1
	c-25.8-24.9-99.6-79.1-130.4-98L235.6,390.7z"/>
<path class="st0" d="M88.3,361.5c66.3,66.3,170.3,69.9,232.3,7.9s58.4-165.9-7.9-232.3c-66.3-66.3-170.3-69.9-232.3-7.9
	S21.9,295.1,88.3,361.5z M228.2,125.8c8.5,1.1,16.7,3.5,24.4,7.1l15.2,7l14.7,10.1c9.6,6.6,17.8,14.9,24.4,24.5l9.4,13.8l5.5,16.8
	c2.7,8.1,4.2,16.5,4.5,25 M156.9,136.1c4.4-1.9,8.9-3.3,13.6-4.3l11-2.3L321,269l-2.5,11.7c-1.1,5.1-3,9.9-5.7,14.3 M104.1,172.2
	l2.8-7.7c3.6-5.2,4-5,9.2-8.7l7.6-3.2l172,172l-2.4,6.4c-3.3,5.8-5.6,8.7-11.5,11.8l-5.6,1.2L104.1,172.2z M245.2,363.6
	c-4.4,2.7-9.3,4.7-14.3,5.7l-11.7,2.5L79.7,232.3l2.3-11c1-4.7,2.4-9.2,4.3-13.6 M179.1,376.2c-8.5-0.3-16.9-1.8-25-4.5l-16.8-5.5
	l-13.8-9.4c-9.6-6.6-17.9-14.8-24.5-24.4l-10.1-14.7l-7-15.2c-3.6-7.7-6-16-7.1-24.4"/>
</svg>
