<?xml version="1.0" encoding="utf-8"?>
<!-- Generator: Adobe Illustrator 26.0.3, SVG Export Plug-In . SVG Version: 6.00 Build 0)  -->
<svg version="1.1" id="Layer_1" xmlns="http://www.w3.org/2000/svg" xmlns:xlink="http://www.w3.org/1999/xlink" x="0px" y="0px"
	 viewBox="0 0 200 200" style="enable-background:new 0 0 200 200;" xml:space="preserve">
<g>
	<g>
		<path d="M123.2,50.8c0-14.8-8.9-26.6-26.5-26.6c-12.1,0-23,6-31.6,15.7l-13-11.8c11.6-13,27.2-22.7,47.1-22.7
			c27.8,0,46.1,16.9,46.1,43.9c0,36.1-44.3,50.7-39.8,89.1h-20C79.6,95.6,123.2,79.9,123.2,50.8z M79.7,179.1
			c0-10.4,7.4-17.5,16.4-17.5c9,0,16.4,7.1,16.4,17.5c0,10-7.4,17.1-16.4,17.1C87.1,196.2,79.7,189.1,79.7,179.1z"/>
	</g>
</g>
<g>
	<g>
		<path d="M47.2,115.1c0-5.4-3.2-9.7-9.6-9.7c-4.4,0-8.4,2.2-11.5,5.7l-4.7-4.3c4.2-4.7,9.9-8.3,17.1-8.3c10.1,0,16.8,6.1,16.8,16
			c0,13.1-16.1,18.4-14.5,32.4h-7.3C31.3,131.4,47.2,125.7,47.2,115.1z M31.4,161.7c0-3.8,2.7-6.4,6-6.4c3.3,0,6,2.6,6,6.4
			c0,3.7-2.7,6.2-6,6.2C34.1,168,31.4,165.4,31.4,161.7z"/>
	</g>
</g>
<g>
	<g>
		<path d="M174.5,88.2c0-4.3-2.6-7.7-7.7-7.7c-3.5,0-6.7,1.7-9.2,4.6l-3.8-3.4c3.4-3.8,7.9-6.6,13.7-6.6c8.1,0,13.4,4.9,13.4,12.8
			c0,10.5-12.9,14.7-11.6,25.9h-5.8C161.8,101.2,174.5,96.6,174.5,88.2z M161.9,125.5c0-3,2.1-5.1,4.8-5.1c2.6,0,4.8,2.1,4.8,5.1
			c0,2.9-2.1,5-4.8,5C164,130.5,161.9,128.4,161.9,125.5z"/>
	</g>
</g>
</svg>
