<?xml version="1.0" encoding="utf-8"?>
<!-- Generator: Adobe Illustrator 27.6.1, SVG Export Plug-In . SVG Version: 6.00 Build 0)  -->
<svg version="1.1" id="Layer_1" xmlns="http://www.w3.org/2000/svg" xmlns:xlink="http://www.w3.org/1999/xlink" x="0px" y="0px"
	 viewBox="0 0 200 200" style="enable-background:new 0 0 200 200;" xml:space="preserve">
<style type="text/css">
	.st0{fill:#FFFFFF;}
</style>
<g>
	<path class="st0" d="M165.1,134.7c2.2-37.1-25.8-71.2-62.7-76.5C76.9,53.8,53.6,67,37.7,86.8C23.8,103.9,15,125.8,14,148
		c-0.4,6.7-10.1,6.8-10.5,0C1.6,94.6,42.1,34.2,99.7,35.7c53.4,0.6,97.2,46.2,98.3,99.3c0.3,9.1-6.8,16.7-15.9,17
		C172.5,152.4,164.6,144.3,165.1,134.7L165.1,134.7z"/>
</g>
<g>
	<path class="st0" d="M84.4,143.9L51.2,96.7c-1.1-1.6-0.7-3.7,0.8-4.8c1.1-0.8,2.5-0.8,3.6-0.2l51.2,26.7c8.6,4.5,11.9,15,7.4,23.6
		c-4.5,8.6-15,11.9-23.6,7.4C88.1,148,86,146.1,84.4,143.9z"/>
</g>
</svg>
