<?xml version="1.0" encoding="utf-8"?>
<!-- Generator: Adobe Illustrator 27.6.1, SVG Export Plug-In . SVG Version: 6.00 Build 0)  -->
<svg version="1.1" id="Layer_1" xmlns="http://www.w3.org/2000/svg" xmlns:xlink="http://www.w3.org/1999/xlink" x="0px" y="0px"
	 viewBox="0 0 800 800" style="enable-background:new 0 0 800 800;" xml:space="preserve">
<style type="text/css">
	.st0{fill:none;stroke:#FFFFFF;stroke-width:30;stroke-linecap:round;stroke-miterlimit:10;}
	.st1{fill:#FFFFFF;}
	.st2{fill:none;stroke:#FFFFFF;stroke-width:27;stroke-miterlimit:10;}
</style>
<path class="st0" d="M91.6,101.9L68,125.6c-1.9,1.9-2.7,4.6-2.2,7.7l0,0c0.4,3,2,6,4.4,8.4l28,28c2.2,2.2,5,3.8,7.8,4.3l18.5,3.7
	c2.8,0.6,5.6,2.1,7.8,4.3l222.2,222.2c9.6,9.6,23.3,11.5,30.6,4.2l13.1-13.1c7.3-7.3,5.4-21-4.2-30.6L171.7,142.6
	c-2.2-2.2-3.8-5-4.3-7.8l-3.7-18.5c-0.6-2.8-2.1-5.6-4.3-7.8l-28-28c-2.4-2.4-5.4-4-8.4-4.4h0c-3.1-0.4-5.8,0.3-7.7,2.2L91.6,101.9"
	/>
<line class="st0" x1="114.5" y1="210.6" x2="128.3" y2="196.7"/>
<line class="st0" x1="151.8" y1="247.8" x2="165.6" y2="234"/>
<line class="st0" x1="187.7" y1="136.7" x2="201.5" y2="122.9"/>
<line class="st0" x1="224.9" y1="174" x2="238.8" y2="160.2"/>
<path class="st0" d="M501.8,484.5l-27.6,27.6c-11,11-12.8,26.8-4,34.7L593.4,658c6.3,5.7,17.5,4,25.3-3.9l25.1-25.1
	c7.8-7.8,9.5-19,3.9-25.3L536.6,480.5C528.6,471.7,512.8,473.5,501.8,484.5z"/>
<g>
	<path class="st1" d="M448.1,266.7c9.4,6.9,13.5,17.7,18.7,31.3c6.8,17.9,15.2,40.2,39.9,55.9c17,10.9,30.2,11.3,44.2,11.8
		c6,0.2,12.1,0.4,19.3,1.4l51.4-16.2c-11.2-4.7-22.5-8.5-33.6-11c-15.3-3.5-26.8-3.9-36-4.2c-12.2-0.4-19-0.6-29.1-7.1
		c-16.3-10.4-21.7-24.7-28-41.3c-5.8-15.4-12.4-32.8-29.1-44.9c-13.5-9.9-40.6-15.6-67.3-14.3c-24.4,1.2-59.4,8.6-87.7,36.9
		l21.2,21.2c21.5-21.5,48.8-27.2,68-28.1C423.2,257,442.4,262.6,448.1,266.7z"/>
	<path class="st1" d="M659.4,409.2c14.8,13.1,30.8,32.3,37.1,57.4c8.5,33.7-1.3,71.8-29.2,113.2c-10.8,16-32.6,38.5-48.3,52.7
		l20.1,22.3c4.4-4,10.2-9.4,16.5-15.8c12.6-12.6,27.3-28.6,36.6-42.5c32.8-48.8,44.1-95,33.4-137.3c-5.5-21.8-17-42.3-33.8-60.4
		L659.4,409.2z"/>
</g>
<g>
	<path class="st1" d="M567.4,679.8c-41.4,27.9-79.5,37.7-113.2,29.2c-30.4-7.6-52-29.3-64.8-46.1c-15.4-20.2-27.3-45.4-32.7-69.2
		c-2.8-12.5-3.1-21.6-3.4-30.4c-0.5-14-0.9-27.2-11.8-44.2c-1.7-2.7-6.6-8.1-8.5-10.4l-32.1,10.1c4.5,3.5,11.7,10.7,15.3,16.4
		c6.5,10.1,6.7,16.8,7.1,29.1c0.3,9.2,0.7,20.8,4.2,36c6.3,27.8,20.2,57.2,38,80.7c22.5,29.6,50.6,49.3,81.3,57
		c42.3,10.7,88.5-0.6,137.3-33.4c13.9-9.3,29.8-24,42.5-36.6c6.3-6.3,11.8-12.2,15.8-16.5l-22.3-20.1
		C605.9,647.2,583.4,669,567.4,679.8z"/>
	<path class="st1" d="M262.4,472.6c-1.7-1.5-3.2-3.2-4.6-5.1c-4.1-5.7-13.3-31.8-12.1-55c1-19.1,6.6-46.4,28.1-68l-21.2-21.2
		c-28.3,28.3-35.7,63.3-36.9,87.7c-1.2,24.9,7.3,57.1,16,71.3L262.4,472.6z"/>
</g>
<g>
	<path class="st1" d="M740.5,362.9c0,0-497,152.7-497,152.7c-2.8,0.9-5.9-0.7-6.7-3.6c-0.8-2.7,0.6-5.7,3.3-6.6l488.2-178.8
		c9.9-3.6,20.9,1.5,24.5,11.4C756.6,348.2,750.9,359.7,740.5,362.9L740.5,362.9z"/>
</g>
<line class="st2" x1="693.1" y1="-117.3" x2="692.4" y2="-116.6"/>
</svg>
