<?xml version="1.0" encoding="utf-8"?>
<!-- Generator: Adobe Illustrator 27.6.1, SVG Export Plug-In . SVG Version: 6.00 Build 0)  -->
<svg version="1.1" id="Layer_1" xmlns="http://www.w3.org/2000/svg" xmlns:xlink="http://www.w3.org/1999/xlink" x="0px" y="0px"
	 viewBox="0 0 800 800" style="enable-background:new 0 0 800 800;" xml:space="preserve">
<style type="text/css">
	.st0{fill:#FFFFFF;}
	.st1{fill:none;stroke:#FFFFFF;stroke-width:19;stroke-linecap:round;stroke-miterlimit:10;}
</style>
<path class="st0" d="M479.2,332.2c0,2.5,0,4.5,0,4.5S479.2,334.6,479.2,332.2c0-2.5,0-4.5,0-4.5S479.2,329.7,479.2,332.2z"/>
<path class="st0" d="M428.7,359.8c-22.9-24.1-69.9-95.6-85.6-126l-19-33.9c-8.1,27-15,63.1-38.2,86.3
	c-21.9,21.9-56.1,28.3-81.5,36.7l30.4,17.3c28.9,17.5,99.2,65.9,123.4,88.7l107.5,96.1c13.8,12.4,26.4,25.8,37.8,40.5l49.4,63.2
	c12.1,11.4,36.6,5.4,55.4-13.3l4-4.1c19.5-19.6,25.5-45.3,13.6-57.8l-60.3-48.5c-14.6-11.7-28.2-24.6-40.6-38.5L428.7,359.8z"/>
<g>
	<path class="st0" d="M272.3,109.9c-44.6-33-107.9-29.3-148.4,11.1s-44.2,103.7-11.1,148.4L272.3,109.9z"/>
	<path class="st0" d="M127.2,283.9c44.6,33,107.9,29.3,148.4-11.1c40.5-40.5,44.2-103.7,11.1-148.4L127.2,283.9z"/>
</g>
<path class="st1" d="M604.2,606.3c50.3-4.7,66.6,3.8,71.3,13.5c12.5,25.8-51.4,69.4-39.2,99.1c7.8,18.9,42.6,22.9,74.1,22.8"/>
</svg>
