<?xml version="1.0" encoding="utf-8"?>
<!-- Generator: Adobe Illustrator 26.0.3, SVG Export Plug-In . SVG Version: 6.00 Build 0)  -->
<svg version="1.1" xmlns="http://www.w3.org/2000/svg" xmlns:xlink="http://www.w3.org/1999/xlink" x="0px" y="0px"
	 viewBox="0 0 897.9 900" style="enable-background:new 0 0 897.9 900;" xml:space="preserve">
<style type="text/css">
	.st0{fill:#FFFFFF;}
</style>
<g id="Layer_1">
	<g>
		<g>
			<path class="st0" d="M28.1,189.8c3.5,1.4,6.4,2.5,9.2,3.9c16.2,8,33.8,10.8,51.2,14.2c9.4,1.9,18.9,3.3,28.4,4.9
				c2.6,0.4,4.9,0.6,7.9,0.8c215,0,430,0.1,645-0.2c13,0,26-3.4,38.8-5.9c12.9-2.5,25.6-5.8,38.3-9.2c4.9-1.3,9.4-4,14.1-6.1
				c1.8-0.8,3.6-1.5,5.9-2.4c0,2.8,0,5,0,7.1c0,158,0,316-0.1,474c0,16-4.2,31.4-10.1,46.3c-6.6,16.7-16,31.5-28,44.8
				c-14.9,16.6-32.7,28.7-53.2,37.2C757.1,806.9,738,810,718,810c-183.8-0.2-367.6,0-551.5-0.2c-23.4,0-45.2-7.4-65-19.4
				c-11.5-7-22.7-15.2-32.1-24.8c-13.8-14.1-24.5-30.7-31.5-49.5c-6.3-16.8-9.8-33.9-9.8-51.9c0.1-155.8,0.1-311.6,0.1-467.5
				C28.1,194.7,28.1,192.6,28.1,189.8z M493.2,391.6c4.3,0.4,7.8,0.9,11.2,1.1c22.8,1,43.7-5.7,63.1-17.1c7.5-4.4,13.4-10,13.4-19.6
				c0-15.5,0.2-31-0.2-46.5c-0.2-11.1-7.5-19.2-18.2-22.1c-8.2-2.2-15.7-0.4-23.5,2c-13.9,4.3-27.7,7.5-42.6,3.7
				c-12.6-3.2-24.8-8.3-38.5-7.1c-14.1,1.2-21.6,6.8-23.9,20.6c-0.4,2.6-0.4,5.3-0.4,8c0,98.1,0,196.3,0,294.4c0,1.9,0,3.9,0,5.7
				c-0.9,0.1-1.2,0.3-1.5,0.2c-1-0.2-1.9-0.4-2.9-0.7c-37.9-8.7-73.2-4.5-104.7,20.3c-25.1,19.8-30.9,56-12.4,81.9
				c15.3,21.4,37.8,31.8,62.5,35.7c20.2,3.2,41,3.2,61.1-4.1c13.6-4.9,26.1-11.1,36.9-21.1c14-13,20.5-28.7,20.5-47.4
				c0-93.6,0-187.3,0-280.9C493.2,396.6,493.2,394.5,493.2,391.6z"/>
			<path class="st0" d="M450.5,183.1c-98.5,0-196.9,0.4-295.4-0.2c-25-0.2-49.9-4.2-73.7-12.6c-9.4-3.3-18.9-6.7-27.6-11.3
				c-7.2-3.8-13.4-6.8-18.1-13.9c-1.7-2.6-3.6-5.2-3.8-7.1c-0.6-7.3-1.9-14.9-0.8-22.1c1.2-7.7,7.7-12.3,14-16.6
				c13.2-9.1,27.8-14.8,43.2-18.5c13-3.1,26.1-6,39.3-8.3c8.3-1.4,16.8-2.3,25.2-2.3C350.3,70,548,69.9,745.6,70.3
				c21.1,0,42.3,3.3,62.6,9.8c12.8,4.1,25.4,8.8,37.6,14.3c7.4,3.4,14.6,8,19.1,15.3c5.8,9.3,8.7,29.9-3.3,39.4
				c-10.7,8.3-22.1,15.3-35.3,18.9c-15.2,4.1-30.4,8.3-45.8,11.3c-11.3,2.2-23,3.6-34.6,3.6C647.4,183.2,549,183.1,450.5,183.1z
				 M449.3,94.9c-78.5,0-157-0.1-235.4,0.1c-17.9,0.1-36,0.6-53.8,2.3c-24.5,2.4-47.5,3.3-69.5,14.8c-1.6,0.8-7.6,4.2-9.2,5
				c-3,1.6-8.9,4.5-8.8,7.5c0.1,2.3,4.1,5,6.1,6.5c1.6,1.2,6.2,4.5,8.1,5.5c32.4,15.9,69.7,16.9,104.3,17.2
				c155.6,1,311.2,0.5,466.9,0.4c26.2,0,85.7,1.5,111.8-2.7c19.1-3,21.1-2.4,39.2-9.3c7.7-2.9,13.6-4.7,21.2-8
				c4.4-3.1,2.8-9.1,2.5-10.2c-1-3.7-7.2-7.1-9.3-8.3c-14.4-8.6-27.3-10.5-28-10.4c-30.1-7.8-53.4-9.8-86.1-9.9
				C622.5,94.6,535.9,94.9,449.3,94.9z"/>
		</g>
	</g>
</g>
<g id="Layer_2">
</g>
<g id="Layer_2_copy">
</g>
</svg>
